<svg width="800" height="800" viewBox="0 0 800 800" fill="none" xmlns="http://www.w3.org/2000/svg">
<g filter="url(#filter0_f_37_16)">
<g filter="url(#filter1_d_37_16)">
<g filter="url(#filter2_d_37_16)">
<rect x="102.89" y="36.3348" width="133.111" height="133.111" rx="30" transform="rotate(30 102.89 36.3348)" fill="#FFFDFD"/>
</g>
<g clip-path="url(#clip0_37_16)">
<path fill-rule="evenodd" clip-rule="evenodd" d="M87.7657 117.217C84.9822 119.345 82.6052 121.958 80.7488 124.929C79.8299 126.893 79.4298 129.059 79.5867 131.221C80.2442 134.661 81.5231 137.953 83.3608 140.936L93.9752 162.369C95.1219 165.282 96.7415 167.986 98.7686 170.372C100.199 171.724 101.926 172.722 103.812 173.284C106.903 173.868 110.068 173.938 113.182 173.493L137.239 172.069C140.77 172.181 144.293 171.651 147.634 170.503C149.597 169.554 151.28 168.111 152.517 166.316C154.168 163.192 155.238 159.795 155.674 156.29L168.126 99.5244C168.683 97.7746 168.923 95.9394 168.834 94.1053C168.647 92.9818 168.178 91.9243 167.471 91.0317C166.178 89.7316 164.664 88.6725 163 87.9038L143.156 76.4469C141.658 75.39 139.981 74.6118 138.206 74.1495C137.078 73.9812 135.925 74.1061 134.859 74.5121C133.23 75.3548 131.766 76.4836 130.537 77.8445L87.7657 117.217ZM157.906 98.537C157.964 100.073 157.748 101.608 157.267 103.068L145.536 153.606C142.093 148.219 137.847 143.39 132.945 139.285L141.059 105.595C141.105 105.395 141.102 105.186 141.051 104.988C141 104.789 140.902 104.605 140.765 104.452C140.628 104.299 140.456 104.18 140.265 104.107C140.073 104.034 139.866 104.008 139.662 104.031C139.389 104.06 139.133 104.179 138.934 104.368L113.917 128.286C107.887 126.076 101.553 124.807 95.1371 124.522L133.093 89.1248C134.116 87.9743 135.339 87.0187 136.703 86.3045C137.592 85.9662 138.552 85.8576 139.494 85.9885C140.981 86.3834 142.385 87.0421 143.639 87.9332L153.03 93.3549C154.43 93.996 155.703 94.8831 156.79 95.974C157.376 96.7268 157.762 97.6159 157.911 98.5582L157.906 98.537ZM117.856 144.511C121.767 147.081 126.408 148.308 131.079 148.007C130.766 149.435 130.167 150.786 129.32 151.977C128.472 153.169 127.393 154.177 126.147 154.942C123.689 156.334 120.894 157.018 118.071 156.918C114.974 157.049 112.302 157.174 110.386 160.492C109.768 161.555 109.402 162.745 109.314 163.971C108.152 162.454 107.466 160.627 107.342 158.72C107.218 156.814 107.662 154.913 108.618 153.258L108.736 153.053C110.062 150.757 111.695 147.929 108.46 146.062C108.01 145.801 107.512 145.631 106.996 145.562C105.956 145.425 104.904 145.705 104.071 146.343C103.657 146.659 103.309 147.054 103.046 147.504C102.227 143.803 102.876 139.928 104.857 136.696C105.661 135.267 106.676 133.967 107.868 132.84C107.743 136.162 111.761 141.005 117.85 144.521L117.856 144.511Z" fill="#FF5D01"/>
</g>
</g>
<g filter="url(#filter3_d_37_16)">
<g filter="url(#filter4_d_37_16)">
<rect x="284.723" y="36.3348" width="133.111" height="133.111" rx="30" transform="rotate(30 284.723 36.3348)" fill="#FFFDFD"/>
</g>
<g clip-path="url(#clip1_37_16)">
<path d="M257.819 104.442C256.631 100.007 259.263 95.4481 263.698 94.2597L331.893 75.9868C336.328 74.7985 340.887 77.4303 342.075 81.8653L360.348 150.061C361.536 154.496 358.904 159.054 354.469 160.242L286.274 178.515C281.839 179.704 277.281 177.072 276.092 172.637L257.819 104.442Z" fill="#EE513B"/>
<path d="M317.961 79.8365L311.055 81.687L315.834 99.5231C314.81 100.24 313.923 101.187 313.257 102.342C311.365 105.618 311.809 109.603 314.073 112.366L298.103 140.027C294.578 139.448 290.905 141.055 289.013 144.332C286.572 148.56 288.021 153.966 292.249 156.407C296.477 158.848 301.883 157.399 304.324 153.171C306.039 150.201 305.834 146.648 304.093 143.952L320.243 115.978L324.812 133.028C323.822 133.738 322.963 134.666 322.314 135.79C319.873 140.018 321.322 145.424 325.55 147.865C329.778 150.306 335.184 148.857 337.625 144.629C340.065 140.402 338.617 134.995 334.389 132.555C333.567 132.08 332.702 131.753 331.821 131.564L326.915 113.253C327.551 112.664 328.111 111.971 328.567 111.181C331.008 106.953 329.559 101.547 325.331 99.106C324.541 98.6499 323.71 98.3297 322.865 98.1379L317.961 79.8365Z" fill="white"/>
</g>
</g>
<g filter="url(#filter5_d_37_16)">
<g filter="url(#filter6_d_37_16)">
<rect x="466.555" y="36.3348" width="133.111" height="133.111" rx="30" transform="rotate(30 466.555 36.3348)" fill="#FFFDFD"/>
</g>
<g clip-path="url(#clip2_37_16)">
<path fill-rule="evenodd" clip-rule="evenodd" d="M521.801 73.3545C551.746 90.6431 561.9 128.54 544.813 158.136C527.524 188.081 489.628 198.235 459.683 180.947C430.087 163.859 419.932 125.963 437.221 96.0178C454.308 66.4213 492.205 56.267 521.801 73.3545ZM498.043 145.061C487.701 149.304 476.103 144.465 472.209 134.324C468.113 124.531 473.3 113.134 483.642 108.891C494.131 105.198 505.73 110.037 509.825 119.83C513.72 129.971 508.532 141.368 498.043 145.061ZM449.187 163.745L481.189 155.758C472.524 153.077 465.32 147.06 462.068 138.219C457.972 128.426 460.266 117.215 466.336 109.114L436.222 118.654C436.222 118.654 436.398 112.721 440.527 103.962L487.584 97.2395C501.354 95.9044 514.786 103.195 519.966 115.935C525.587 130.323 518.831 146.85 504.537 153.917L461.36 174.022C457.878 172.012 451.517 166.947 449.187 163.745Z" fill="#00B3E0"/>
</g>
</g>
<g filter="url(#filter7_d_37_16)">
<g filter="url(#filter8_d_37_16)">
<rect x="648.388" y="36.3348" width="133.111" height="133.111" rx="30" transform="rotate(30 648.388 36.3348)" fill="#FFFDFD"/>
</g>
<g clip-path="url(#clip3_37_16)">
<path d="M686.53 103.74C716.318 99.6469 711.757 83.1678 711.757 83.1678C703.797 100.583 682.98 93.761 671.454 102.231C663.589 108.011 665.398 118.092 670.094 132.193C670.335 129.809 670.083 127.213 669.829 124.585C668.961 115.62 668.057 106.281 686.53 103.74Z" fill="#E76F00"/>
<path d="M671.362 137.595C671.362 137.595 680.433 136.175 678.736 127.797C672.991 99.3832 712.704 110.922 712.704 110.922C685.562 108.892 685.226 116.794 686.305 127.253C687.453 138.462 671.362 137.595 671.362 137.595Z" fill="#E76F00"/>
<path d="M680.986 163.001C705.671 164.266 702.262 149.818 695.382 147.527C693.696 146.965 692.869 146.845 692.869 146.845C692.869 146.845 693.927 146.305 695.212 146.549C709.81 149.368 709.576 171.388 680.319 163.271C680.319 163.271 680.764 163.182 680.986 163.001Z" fill="#5382A1"/>
<path d="M648.44 127.774C637.418 119.322 658.374 125.67 658.374 125.67C658.374 125.67 651.477 121.054 640.238 120.155C626.946 119.095 661.867 142.264 683.417 148.241C686.123 148.057 689.472 148.478 689.472 148.478C689.472 148.478 681.021 145.395 673.013 141.618C663.218 136.989 653.093 131.344 648.44 127.774Z" fill="#5382A1"/>
<path d="M647.608 139.694C641.348 135.178 647.533 134.522 647.533 134.522C627.081 130.203 650.188 152.036 678.227 159.005C676.182 156.643 675.492 154.084 675.492 154.084C662.455 149.524 655.705 145.532 647.608 139.694Z" fill="#5382A1"/>
<path d="M644.696 151.43C638.484 146.842 643.648 146.864 643.648 146.864C625.549 142.137 645.552 165.509 670.281 168.61C667.742 165.484 666.24 162.699 666.24 162.699C656.415 159.228 652.225 156.981 644.696 151.43Z" fill="#5382A1"/>
<path d="M683.34 180.567C683.34 180.567 684.869 184.553 677.792 182.869C664.337 179.66 627.44 159.735 619.847 149.596C617.118 145.953 625.158 147.725 627.557 148.508C630.062 149.32 631.285 150.145 631.285 150.145C628.866 145.024 602.062 140.584 615.563 151.539C652.38 181.418 691.165 191.305 683.34 180.567Z" fill="#5382A1"/>
<path d="M686.839 189.369C681.258 197.498 652.128 183.067 634.496 171.352C622.995 163.708 621.689 160.446 621.67 160.398C632.024 168.846 651.09 180.303 668.375 186.429C683.696 191.857 686.839 189.369 686.839 189.369Z" fill="#5382A1"/>
</g>
</g>
<g filter="url(#filter9_d_37_16)">
<g filter="url(#filter10_d_37_16)">
<rect x="102.89" y="218.167" width="133.111" height="133.111" rx="30" transform="rotate(30 102.89 218.167)" fill="#FFFDFD"/>
</g>
<g clip-path="url(#clip4_37_16)">
<path d="M153.668 272.499C156.752 271.139 160.095 270.465 163.465 270.524C166.835 270.584 170.152 271.375 173.186 272.842C171.872 275.693 169.993 278.247 167.663 280.351C165.333 282.455 162.601 284.065 159.632 285.083C156.779 286.373 153.643 286.913 150.523 286.65C147.403 286.388 144.401 285.331 141.805 283.581C142.907 281.013 144.531 278.703 146.573 276.795C148.615 274.887 151.031 273.424 153.668 272.499Z" fill="#A8C2AB"/>
<path d="M139.505 289.413C142.685 291.249 151.106 290.283 158.803 294.727C162.517 296.663 165.668 299.528 167.946 303.044C170.225 306.559 171.555 310.605 171.806 314.786C167.644 314.796 163.559 315.905 159.964 318.002C156.369 320.1 153.393 323.11 151.337 326.728C148.998 330.821 147.905 335.508 148.192 340.213C148.48 344.918 150.135 349.437 152.954 353.215C152.954 353.215 129.68 373.051 117.701 366.135C112.2 362.959 110.058 356.791 104.265 353.446C98.3578 350.036 90.2767 350.499 86.4605 348.295C75.5298 341.985 75.3689 310.327 86.3541 291.3C97.1627 272.579 114.527 269.509 125.495 275.841C132.626 279.959 135.783 287.264 139.505 289.413Z" fill="#A8C2AB"/>
</g>
</g>
<g filter="url(#filter11_d_37_16)">
<g filter="url(#filter12_d_37_16)">
<rect x="284.723" y="218.167" width="133.111" height="133.111" rx="30" transform="rotate(30 284.723 218.167)" fill="#FFFDFD"/>
</g>
<g clip-path="url(#clip5_37_16)">
<path d="M336.26 262.012L282.845 253.588L256.569 314.629L281.907 356.155L330.539 357.335L370.264 304.059L336.26 262.012Z" fill="#DD0031"/>
<path d="M336.26 262.012L281.907 356.155L330.539 357.335L370.264 304.059L336.26 262.012Z" fill="#C3002F"/>
<path d="M330.254 272.414L267.464 318.067L277.652 323.949L291.081 313.375L314.274 326.765L311.831 343.682L322.019 349.564L330.254 272.414ZM315.597 316.232L299.635 307.016L318.731 292.372L315.597 316.232Z" fill="white"/>
</g>
</g>
<g filter="url(#filter13_d_37_16)">
<g filter="url(#filter14_d_37_16)">
<rect x="466.555" y="218.167" width="133.111" height="133.111" rx="30" transform="rotate(30 466.555 218.167)" fill="#FFFDFD"/>
</g>
<g clip-path="url(#clip6_37_16)">
<path d="M559.281 285.792L476.905 238.233C473.656 236.356 469.501 237.47 467.624 240.719L420.065 323.095C418.189 326.344 419.302 330.499 422.552 332.376L504.927 379.935C508.177 381.811 512.332 380.698 514.208 377.448L561.767 295.073C563.644 291.823 562.53 287.668 559.281 285.792Z" fill="url(#paint0_linear_37_16)"/>
<path d="M478.056 331.359L449.623 330.221L467.8 308.357L460.07 280.981L486.509 291.521L510.167 275.74L508.33 304.119L530.677 321.747L503.104 328.74L493.258 355.414L478.056 331.359Z" fill="white"/>
</g>
</g>
<g filter="url(#filter15_d_37_16)">
<g filter="url(#filter16_d_37_16)">
<rect x="648.388" y="218.167" width="133.111" height="133.111" rx="30" transform="rotate(30 648.388 218.167)" fill="#FFFDFD"/>
</g>
<g clip-path="url(#clip7_37_16)">
<path d="M647.513 352.793C638.868 347.802 631.898 340.359 627.483 331.407C623.068 322.454 621.407 312.393 622.71 302.496C624.012 292.599 628.221 283.311 634.803 275.806C641.384 268.301 650.044 262.916 659.686 260.332C669.328 257.749 679.52 258.082 688.972 261.291C698.425 264.5 706.714 270.439 712.79 278.359C718.867 286.278 722.459 295.822 723.112 305.783C723.765 315.744 721.449 325.674 716.458 334.319C709.754 345.9 698.731 354.349 685.806 357.812C672.88 361.275 659.109 359.47 647.513 352.793ZM695.865 269.046C687.946 264.474 678.849 262.353 669.725 262.951C660.601 263.549 651.859 266.839 644.605 272.406C637.351 277.972 631.91 285.565 628.971 294.223C626.032 302.882 625.726 312.217 628.093 321.049C630.459 329.882 635.392 337.814 642.266 343.843C649.141 349.871 657.649 353.726 666.714 354.92C675.78 356.113 684.996 354.592 693.197 350.548C701.397 346.503 708.215 340.118 712.787 332.2C718.902 321.577 720.554 308.963 717.382 297.124C714.21 285.285 706.472 275.188 695.865 269.046Z" fill="#F5DE19"/>
<path d="M715.07 331.07L632.547 283.426L630.427 287.097L712.95 334.742L715.07 331.07Z" fill="#F5DE19"/>
<path d="M683.699 292.402C671.124 285.217 659.573 276.372 649.357 266.106L652.448 263.203C652.733 263.51 681.672 293.896 722.467 303.629L721.482 307.751C708.215 304.48 695.489 299.311 683.699 292.402Z" fill="#F5DE19"/>
<path d="M623.482 313.555L624.466 309.435C666.538 319.481 695.383 349.797 696.586 351.074L693.495 353.977C693.213 353.672 664.279 323.293 623.482 313.555Z" fill="#F5DE19"/>
<path d="M635.592 340.765C639.535 309.011 655.245 279.891 679.619 259.159L682.166 262.548C658.704 282.571 643.591 310.655 639.806 341.267L635.592 340.765Z" fill="#F5DE19"/>
<path d="M663.606 356.939L661.068 353.542C685.684 334.956 702.447 307.825 708.054 277.495L712.263 278.006C706.494 309.479 689.132 337.645 663.606 356.939Z" fill="#F5DE19"/>
<path d="M698.406 268.877L694.737 266.759L646.215 350.803L649.883 352.921L698.406 268.877Z" fill="#F5DE19"/>
<path d="M675.552 354.411C675.407 356.632 675.891 358.849 676.949 360.806C678.008 362.764 679.597 364.384 681.534 365.479C685.43 367.728 689.046 367.219 690.6 364.527C692.462 361.302 690.567 358.68 687.359 354.33L685.59 351.965C680.472 345.155 678.054 338.93 682.476 331.272C686.548 324.219 695.021 321.951 703.423 326.802C706.259 328.177 708.627 330.357 710.233 333.069C711.838 335.781 712.609 338.906 712.45 342.054L702.411 342.527C702.628 341.043 702.387 339.528 701.721 338.183C701.056 336.839 699.996 335.729 698.684 335.002C698.152 334.618 697.545 334.35 696.903 334.214C696.26 334.078 695.597 334.078 694.954 334.212C694.312 334.347 693.705 334.614 693.171 334.996C692.637 335.379 692.189 335.868 691.855 336.433C690.233 339.243 691.314 341.408 694.341 345.482L696.109 347.847C702.116 355.894 704.603 361.976 700.068 369.831C695.18 378.298 685.847 379.105 676.912 373.946C673.304 372.158 670.291 369.365 668.235 365.903C666.18 362.441 665.17 358.459 665.327 354.436L675.552 354.411ZM641.859 336.045C641.822 339.521 641.877 342.504 645.121 344.377C648.212 346.161 650.857 346.078 653.572 341.376L672.039 309.39L681.443 314.819L662.906 346.927C657.283 356.665 649.014 357.801 640.674 352.987C637.638 351.447 635.138 349.024 633.505 346.036C631.872 343.048 631.182 339.636 631.526 336.249L641.859 336.045Z" fill="#F5DE19" stroke="black" stroke-miterlimit="10"/>
</g>
</g>
<g filter="url(#filter17_d_37_16)">
<g filter="url(#filter18_d_37_16)">
<rect x="102.89" y="400" width="133.111" height="133.111" rx="30" transform="rotate(30 102.89 400)" fill="#FFFDFD"/>
</g>
<g clip-path="url(#clip8_37_16)">
<path d="M130.118 455.278C118.68 445.57 107.167 442.172 99.1113 446.823C93.1 450.294 89.9742 457.692 89.9446 467.512C89.9421 468.348 90.6176 469.028 91.4535 469.03C92.2893 469.033 92.9689 468.357 92.9715 467.521C92.9981 458.675 95.6959 452.29 100.625 449.445C107.317 445.581 117.586 448.612 128.159 457.586C128.796 458.127 129.751 458.048 130.292 457.411C130.833 456.774 130.755 455.819 130.118 455.278ZM155.875 454.319C153.667 455.734 150.766 455.897 148.339 454.496C144.874 452.495 143.687 448.065 145.687 444.601C147.688 441.136 152.118 439.949 155.582 441.949C159.047 443.95 160.234 448.38 158.234 451.844C158.181 451.935 158.127 452.024 158.072 452.112C165.355 463.478 161.997 485.957 149.782 507.116C144.757 515.818 138.719 523.466 132.275 529.397C131.66 529.963 130.702 529.924 130.136 529.309C129.57 528.694 129.61 527.736 130.225 527.17C136.439 521.452 142.286 514.045 147.16 505.602C158.663 485.68 161.938 464.712 155.875 454.319ZM76.8863 487.365C77.0476 487.443 77.2072 487.528 77.3648 487.619C80.8294 489.619 82.0164 494.049 80.0161 497.514C78.0159 500.978 73.5858 502.165 70.1212 500.165C66.6566 498.165 65.4696 493.735 67.4699 490.27C68.8315 487.912 71.3193 486.609 73.8619 486.648C79.6861 474.378 101.083 465.776 125.914 465.776C136.228 465.776 146.113 467.257 154.616 470.004C155.412 470.261 155.848 471.114 155.591 471.91C155.334 472.705 154.481 473.141 153.685 472.884C145.491 470.237 135.92 468.803 125.914 468.803C102.53 468.803 82.507 476.702 76.8863 487.365ZM144.183 538.695C144.19 537.48 144.504 536.25 145.155 535.122C147.155 531.657 151.585 530.47 155.05 532.47C158.514 534.471 159.702 538.901 157.701 542.365C155.701 545.83 151.271 547.017 147.806 545.017C146.441 544.228 145.429 543.063 144.827 541.728C131.421 541.837 114.039 527.798 102.047 507.027C96.9419 498.185 93.3031 488.981 91.4139 480.318C91.2358 479.501 91.7535 478.695 92.5702 478.517C93.3868 478.339 94.1932 478.856 94.3713 479.673C96.1923 488.024 99.7159 496.936 104.668 505.514C115.986 525.116 132.179 538.355 144.183 538.695ZM156.779 515.93C155.992 516.213 155.126 515.804 154.843 515.017C154.561 514.231 154.969 513.364 155.756 513.082C168.767 508.41 176.493 501.046 176.493 493.336C176.493 487.739 172.452 482.299 165.034 477.887C164.316 477.46 164.08 476.531 164.507 475.813C164.935 475.094 165.864 474.858 166.582 475.285C174.829 480.191 179.52 486.506 179.52 493.336C179.52 502.619 170.857 510.875 156.779 515.93ZM90.9248 508.711C91.0742 507.888 91.862 507.343 92.6844 507.492C93.5068 507.642 94.0523 508.429 93.9029 509.252C91.4268 522.882 93.9379 533.278 100.625 537.139C105.434 539.915 112.099 539.17 119.561 535.035C120.292 534.63 121.213 534.895 121.619 535.626C122.024 536.357 121.759 537.278 121.028 537.683C112.725 542.283 104.982 543.149 99.1113 539.76C91.0614 535.112 88.246 523.456 90.9248 508.711ZM155.08 540.852C156.244 538.835 155.553 536.256 153.536 535.092C151.52 533.927 148.941 534.618 147.776 536.635C146.612 538.652 147.303 541.231 149.32 542.395C151.337 543.56 153.915 542.869 155.08 540.852ZM71.6346 497.544C73.6515 498.708 76.2304 498.017 77.3948 496C78.5592 493.983 77.8682 491.405 75.8514 490.24C73.8345 489.076 71.2556 489.767 70.0912 491.784C68.9268 493.8 69.6178 496.379 71.6346 497.544ZM149.852 451.874C151.869 453.039 154.448 452.348 155.612 450.331C156.777 448.314 156.086 445.735 154.069 444.571C152.052 443.406 149.473 444.097 148.309 446.114C147.144 448.131 147.835 450.71 149.852 451.874ZM124.311 498.325C121.555 497.44 120.04 494.489 120.924 491.733C121.811 488.978 124.761 487.462 127.517 488.346C130.273 489.231 131.788 492.182 130.904 494.939C130.018 497.695 127.068 499.21 124.311 498.325Z" fill="#47848F"/>
</g>
</g>
<g filter="url(#filter19_d_37_16)">
<g filter="url(#filter20_d_37_16)">
<rect x="284.723" y="400" width="133.111" height="133.111" rx="30" transform="rotate(30 284.723 400)" fill="#FFFDFD"/>
</g>
<g clip-path="url(#clip9_37_16)">
<path d="M355.577 526.443L359.713 506.218L367.957 466.115C368.045 465.658 367.987 465.185 367.792 464.762C367.596 464.339 367.274 463.988 366.869 463.758C366.467 463.524 366.003 463.422 365.541 463.465C365.079 463.508 364.641 463.695 364.29 463.998L333.695 491.167L296.554 469.724L304.789 429.636C304.876 429.18 304.818 428.709 304.623 428.289C304.429 427.868 304.107 427.519 303.704 427.29C303.303 427.055 302.839 426.952 302.376 426.995C301.913 427.038 301.476 427.225 301.125 427.53L270.544 454.707L255.091 468.428C254.405 469.04 253.933 469.857 253.747 470.758C253.56 471.66 253.669 472.597 254.057 473.431L282.889 536.304L351.74 529.828C352.658 529.751 353.527 529.38 354.218 528.77C354.909 528.161 355.386 527.345 355.577 526.443Z" fill="#FC6D26"/>
<path d="M282.894 536.278L333.706 491.164L296.565 469.721L282.894 536.278Z" fill="#E24329"/>
<path d="M282.894 536.278L296.551 469.713L270.556 454.704L282.894 536.278Z" fill="#FC6D26"/>
<path d="M270.522 454.713L255.081 468.412C254.394 469.025 253.923 469.842 253.736 470.743C253.55 471.644 253.659 472.581 254.046 473.416L282.878 536.307L270.517 454.721L270.522 454.713Z" fill="#FCA326"/>
<path d="M270.536 454.722L296.56 469.747L304.777 429.658C304.864 429.201 304.807 428.73 304.613 428.308C304.419 427.886 304.098 427.535 303.696 427.304C303.294 427.068 302.828 426.964 302.365 427.007C301.901 427.049 301.462 427.236 301.11 427.54L270.536 454.722Z" fill="#E24329"/>
<path d="M282.894 536.278L333.706 491.164L359.744 506.197L282.894 536.278Z" fill="#FC6D26"/>
<path d="M359.717 506.211L355.567 526.428C355.381 527.329 354.91 528.147 354.222 528.759C353.535 529.371 352.668 529.745 351.751 529.825L282.894 536.278L359.703 506.202L359.717 506.211Z" fill="#FCA326"/>
<path d="M359.717 506.211L333.708 491.194L364.296 464.021C364.648 463.715 365.087 463.528 365.551 463.486C366.015 463.443 366.481 463.548 366.882 463.785C367.711 464.263 368.142 465.213 367.963 466.138L359.732 506.219L359.717 506.211Z" fill="#E24329"/>
</g>
</g>
<g filter="url(#filter21_d_37_16)">
<g filter="url(#filter22_d_37_16)">
<rect x="466.555" y="400" width="133.111" height="133.111" rx="30" transform="rotate(30 466.555 400)" fill="#FFFDFD"/>
</g>
<g clip-path="url(#clip10_37_16)">
<path fill-rule="evenodd" clip-rule="evenodd" d="M553.195 496.19C561.479 481.841 556.563 463.494 542.214 455.209L496.19 428.637C481.841 420.353 463.494 425.269 455.209 439.618L428.637 485.642C420.353 499.991 425.269 518.339 439.618 526.623L485.642 553.195C499.991 561.479 518.339 556.563 526.623 542.214L553.195 496.19ZM463.241 517.383C461.935 519.644 459.044 520.419 456.783 519.114V519.114C454.522 517.808 453.747 514.917 455.053 512.656L467.99 490.248C469.862 487.006 468.751 482.861 465.509 480.989L463.015 479.549C461.151 478.473 460.512 476.089 461.588 474.225V474.225C462.665 472.361 465.048 471.722 466.912 472.799L491.828 487.184C493.692 488.26 494.331 490.644 493.255 492.508V492.508C492.179 494.372 489.795 495.011 487.931 493.934L485.437 492.494C482.195 490.623 478.05 491.733 476.178 494.975L463.241 517.383ZM514.722 537.02C510.245 544.774 501.393 546.207 491.633 540.572C482.279 535.172 478.951 527.286 482.498 520.079V520.079C482.619 519.835 482.921 519.744 483.156 519.88L490.339 524.027C490.493 524.116 490.555 524.308 490.481 524.471V524.471C489.089 527.572 491.119 531.382 495.7 534.028C500.065 536.548 504.28 536.197 506.018 533.188L506.033 533.161C507.52 530.585 506.425 528.037 502.151 524.232L498.515 521.012C491.336 514.662 490.031 508.847 493.458 502.91L493.474 502.882C497.669 495.616 506.676 494.418 515.351 499.427C524.488 504.702 527.07 512.628 523.813 519.458V519.458C523.718 519.657 523.473 519.733 523.283 519.623L516.266 515.572C516.076 515.462 515.993 515.231 516.07 515.025V515.025C517.221 511.966 515.637 508.449 511.516 506.07C507.461 503.764 503.713 504.058 502.022 506.986L502.006 507.013C500.535 509.562 501.557 512.176 505.617 515.786L509.28 519.021C516.563 525.504 518.26 530.893 514.737 536.993L514.722 537.02Z" fill="#006076"/>
</g>
</g>
<g filter="url(#filter23_d_37_16)">
<g filter="url(#filter24_d_37_16)">
<rect x="648.388" y="400" width="133.111" height="133.111" rx="30" transform="rotate(30 648.388 400)" fill="#FFFDFD"/>
</g>
<g clip-path="url(#clip11_37_16)">
<path fill-rule="evenodd" clip-rule="evenodd" d="M620.874 460.966C637.415 432.317 674.049 422.501 702.699 439.042C731.348 455.582 741.164 492.217 724.624 520.866C714.293 538.76 696.124 549.307 676.958 550.674L667.953 457.801C667.786 456.074 666.521 454.652 664.825 454.284C663.128 453.916 661.388 454.687 660.52 456.19L630.571 508.065L637.487 512.058L661.207 470.975L668.937 550.708C660.009 550.146 651.071 547.567 642.799 542.791C614.149 526.25 604.333 489.616 620.874 460.966ZM680.057 518.191L704.017 476.691L710.934 480.685L686.974 522.185L680.057 518.191Z" fill="black"/>
</g>
</g>
<g filter="url(#filter25_d_37_16)">
<g filter="url(#filter26_d_37_16)">
<rect x="102.89" y="581.833" width="133.111" height="133.111" rx="30" transform="rotate(30 102.89 581.833)" fill="#FFFDFD"/>
</g>
<g clip-path="url(#clip12_37_16)">
<path d="M141.609 717.852L141.146 680.596L173.65 662.356L165.585 694.697L141.61 717.845L141.609 717.852ZM106.421 693.985L97.5719 661.452L130.516 680.472L130.972 717.729L106.414 693.989L106.421 693.985ZM135.382 643.822L168.217 653.217L135.728 671.453L102.777 652.429L135.382 643.822ZM178.56 689.605L189.571 647.325L146.413 635.444L135.363 641.769L124.142 635.181L81.2739 646.028L93.3154 688.582L104.629 694.995L104.691 707.737L136.546 739.16L167.65 708.501L167.4 695.753L178.56 689.605Z" fill="black"/>
</g>
</g>
<g filter="url(#filter27_d_37_16)">
<g filter="url(#filter28_d_37_16)">
<rect x="284.723" y="581.833" width="133.111" height="133.111" rx="30" transform="rotate(30 284.723 581.833)" fill="#FFFDFD"/>
</g>
<g filter="url(#filter29_d_37_16)">
<g clip-path="url(#clip13_37_16)">
<path d="M254.452 682.515L255.558 682.015L316.092 643.888L316.488 643.344L317.564 612.071C317.583 611.499 317.422 610.936 317.104 610.46C316.785 609.985 316.325 609.621 315.789 609.422C315.252 609.222 314.667 609.196 314.115 609.347C313.563 609.499 313.073 609.82 312.713 610.265L254.452 682.515Z" fill="#FFC24A"/>
<path d="M255.187 682.075L256.168 681.44L316.075 643.71L317.237 612.363C317.269 611.824 317.125 611.29 316.827 610.84C316.53 610.39 316.094 610.048 315.587 609.867C315.079 609.685 314.525 609.672 314.01 609.831C313.494 609.99 313.044 610.312 312.727 610.748L255.187 682.075Z" fill="#FFA712"/>
<path d="M315.326 666.795L330.424 662.542L331.381 638.978C331.397 638.469 331.275 637.964 331.027 637.518C330.779 637.073 330.414 636.703 329.973 636.448C329.531 636.193 329.028 636.062 328.518 636.07C328.008 636.078 327.51 636.224 327.076 636.493L316.43 643.228L315.953 644.053L315.326 666.795Z" fill="#F4BD62"/>
<path d="M315.386 666.301L330.054 662.185L330.985 639.282C331.054 638.815 330.986 638.337 330.789 637.907C330.593 637.477 330.276 637.114 329.877 636.86C329.479 636.605 329.015 636.472 328.543 636.476C328.07 636.479 327.608 636.619 327.214 636.879L316.444 643.769L316.003 644.183L315.386 666.301Z" fill="#FFA50E"/>
<path d="M254.457 682.523L254.897 682.402L256.137 682.575L314.358 667.091L315.563 666.086L316.49 643.191L254.457 682.523Z" fill="#F6820C"/>
<path d="M283.759 724.2L327.989 724.861L352.395 660.51C352.566 660.056 352.608 659.563 352.517 659.086C352.427 658.61 352.206 658.167 351.88 657.807C351.555 657.447 351.136 657.184 350.671 657.047C350.205 656.909 349.711 656.903 349.242 657.028L254.452 682.515L276.992 720.289C277.693 721.463 278.682 722.438 279.866 723.122C281.051 723.805 282.39 724.175 283.757 724.195" fill="#FDE068"/>
<path d="M327.773 724.53L352.001 660.668C352.214 660.261 352.301 659.801 352.251 659.345C352.202 658.889 352.018 658.459 351.724 658.107C351.43 657.756 351.038 657.499 350.598 657.371C350.158 657.242 349.689 657.247 349.252 657.385L254.877 682.611L277.163 719.975C277.859 721.139 278.841 722.107 280.015 722.785C281.19 723.463 282.519 723.83 283.875 723.85L327.773 724.53Z" fill="#FCCA3F"/>
<path d="M284.083 723.639C282.716 723.619 281.377 723.249 280.192 722.566C279.008 721.882 278.019 720.907 277.318 719.733L254.888 682.392L254.452 682.515L276.992 720.289C277.693 721.463 278.682 722.438 279.866 723.122C281.051 723.805 282.39 724.175 283.757 724.195L327.989 724.861L328.198 724.309L284.083 723.639Z" fill="#EEAB37"/>
</g>
</g>
</g>
<g filter="url(#filter30_d_37_16)">
<g filter="url(#filter31_d_37_16)">
<rect x="466.555" y="581.833" width="133.111" height="133.111" rx="30" transform="rotate(30 466.555 581.833)" fill="#FFFDFD"/>
</g>
<g clip-path="url(#clip14_37_16)">
<path d="M485.919 681.36C491.602 684.64 498.867 682.693 502.148 677.011C505.429 671.329 503.482 664.063 497.799 660.783C492.117 657.502 484.852 659.449 481.571 665.131C478.29 670.813 480.237 678.079 485.919 681.36Z" fill="#00D8FF"/>
<path d="M502.518 652.607C515.813 660.284 527.361 669.45 535.054 678.299C543.598 688.127 546.969 697.31 544.555 701.492C541.983 705.947 531.619 707.674 518.031 704.868C507.213 702.634 494.116 697.259 481.083 689.734C467.391 681.829 456.032 673.127 448.828 664.877C444.318 659.713 441.119 654.537 439.511 649.977C438.066 645.879 438.026 642.616 439.164 640.645C441.587 636.448 450.933 634.708 463.467 637.094C475.006 639.291 489.057 644.836 502.518 652.607ZM505.36 647.685C491.376 639.611 476.737 633.834 464.53 631.51C449.874 628.72 438.233 630.887 434.241 637.802C430.118 644.944 434.347 656.936 444.547 668.616C452.213 677.396 464.049 686.464 478.241 694.657C491.765 702.466 505.413 708.066 516.881 710.435C532.619 713.685 545.299 711.571 549.478 704.334C553.485 697.394 549.316 686.04 539.344 674.569C531.212 665.216 519.174 655.66 505.36 647.685ZM481.074 652.613C494.365 644.93 508.074 639.506 519.583 637.262C532.366 634.77 542.005 636.438 544.421 640.619C546.996 645.072 543.314 654.913 534.095 665.282C526.755 673.537 515.557 682.198 502.527 689.729C488.839 697.641 475.627 703.133 464.881 705.252C458.154 706.579 452.072 706.765 447.318 705.88C443.047 705.085 440.2 703.489 439.061 701.518C436.636 697.323 439.797 688.357 448.126 678.692C455.794 669.793 467.616 660.392 481.074 652.613ZM478.229 647.691C464.248 655.772 451.931 665.568 443.82 674.981C434.081 686.283 430.144 697.45 434.139 704.362C438.266 711.502 450.767 713.83 465.981 710.829C477.417 708.574 491.184 702.851 505.372 694.65C518.893 686.835 530.562 677.811 538.343 669.059C549.021 657.05 553.525 645.009 549.343 637.774C545.333 630.836 533.414 628.775 518.496 631.683C506.33 634.055 492.039 639.709 478.229 647.691ZM470.365 671.196C470.347 655.844 472.495 641.258 476.298 630.166C480.523 617.848 486.782 610.329 491.611 610.324C496.754 610.317 503.442 618.422 507.821 631.587C511.308 642.069 513.218 656.096 513.235 671.146C513.254 686.956 511.414 701.145 507.883 711.514C505.673 718.005 502.797 723.366 499.656 727.043C496.834 730.346 494.03 732.016 491.753 732.018C486.908 732.024 480.719 724.808 476.505 712.765C472.625 701.678 470.384 686.74 470.365 671.196ZM464.681 671.203C464.7 687.351 467.035 702.914 471.139 714.642C476.067 728.724 483.775 737.712 491.76 737.703C500.006 737.693 508.266 728.025 513.264 713.346C517.022 702.312 518.939 687.525 518.92 671.139C518.901 655.522 516.911 640.905 513.215 629.793C508.143 614.545 499.961 604.629 491.604 604.639C483.591 604.648 475.852 613.945 470.921 628.322C466.901 640.046 464.662 655.252 464.681 671.203Z" fill="#00D8FF"/>
</g>
</g>
<g filter="url(#filter32_d_37_16)">
<g filter="url(#filter33_d_37_16)">
<rect x="648.388" y="581.833" width="133.111" height="133.111" rx="30" transform="rotate(30 648.388 581.833)" fill="#FFFDFD"/>
</g>
<g clip-path="url(#clip15_37_16)">
<path d="M742.432 660.289L727.434 638.296C726.588 637.054 725.376 636.105 723.966 635.582C722.556 635.059 721.018 634.987 719.566 635.377L615.781 658.11C614.523 658.383 613.426 659.143 612.729 660.225C612.033 661.306 611.795 662.62 612.067 663.877C612.101 664.026 612.137 664.172 612.184 664.315L614.824 672.563C615.168 673.642 615.879 674.566 616.834 675.176C617.789 675.785 618.927 676.04 620.05 675.898L737.808 661.078C738.697 660.965 739.601 661.104 740.416 661.477C741.231 661.85 741.926 662.444 742.423 663.19C742.919 663.937 743.197 664.808 743.225 665.704C743.254 666.6 743.032 667.487 742.584 668.263L742.723 668.022C743.407 666.836 743.743 665.482 743.692 664.114C743.64 662.746 743.204 661.42 742.432 660.289Z" fill="#0065A9"/>
<path d="M696.8 739.326L670.253 737.338C668.754 737.224 667.327 736.648 666.17 735.689C665.012 734.73 664.181 733.435 663.791 731.983L631.588 630.732C631.195 629.507 631.305 628.176 631.893 627.033C632.481 625.889 633.5 625.025 634.725 624.633C634.871 624.587 635.015 624.546 635.162 624.515L643.625 622.677C644.734 622.433 645.894 622.587 646.901 623.11C647.908 623.634 648.7 624.495 649.138 625.542L695.171 734.927C695.519 735.754 696.09 736.467 696.821 736.986C697.552 737.506 698.413 737.811 699.308 737.867C700.203 737.924 701.096 737.729 701.886 737.306C702.677 736.882 703.333 736.247 703.782 735.47L703.632 735.73C702.946 736.91 701.941 737.873 700.733 738.509C699.525 739.145 698.162 739.428 696.8 739.326Z" fill="#007ACC"/>
<path d="M670.253 737.338C668.754 737.224 667.327 736.648 666.17 735.689C665.012 734.73 664.181 733.435 663.791 731.983C664.013 732.792 664.47 733.518 665.103 734.069C665.736 734.62 666.518 734.972 667.35 735.08C668.182 735.189 669.028 735.05 669.781 734.68C670.535 734.31 671.162 733.726 671.585 733.001L724.347 641.615C724.769 640.885 724.965 640.046 724.91 639.205C724.855 638.363 724.552 637.557 724.038 636.888C723.525 636.219 722.824 635.718 722.026 635.447C721.227 635.177 720.366 635.15 719.552 635.369C721.004 634.979 722.542 635.051 723.951 635.573C725.361 636.095 726.574 637.043 727.422 638.285L742.425 660.261C743.201 661.391 743.642 662.718 743.697 664.088C743.751 665.458 743.417 666.816 742.733 668.004L703.632 735.729C702.947 736.916 701.941 737.885 700.73 738.525C699.518 739.165 698.15 739.449 696.784 739.346L670.253 737.338Z" fill="#1F9CF0"/>
</g>
</g>
</g>
<g filter="url(#filter34_d_37_16)">
<rect x="340.5" y="302" width="119" height="196" rx="15" fill="black"/>
<rect x="342.5" y="304" width="115" height="192" rx="13" fill="white"/>
<rect x="379.5" y="307" width="40" height="5" rx="2.5" fill="black"/>
<rect x="379.5" y="492" width="40" height="1" rx="0.5" fill="black"/>
<path d="M371.564 435.32C367.959 435.32 365.207 434.403 363.308 432.568C361.431 430.712 360.492 428.141 360.492 424.856C360.492 421.421 361.409 418.765 363.244 416.888C365.1 415.011 367.863 414.072 371.532 414.072C372.791 414.072 373.911 414.168 374.892 414.36C375.895 414.552 376.855 414.808 377.772 415.128V419.64C375.916 418.872 373.964 418.488 371.916 418.488C369.783 418.488 368.215 419 367.212 420.024C366.231 421.048 365.74 422.659 365.74 424.856C365.74 426.947 366.263 428.483 367.308 429.464C368.353 430.445 369.911 430.936 371.98 430.936C372.983 430.936 373.975 430.851 374.956 430.68C375.937 430.488 376.887 430.2 377.804 429.816V434.36C376.908 434.659 375.959 434.893 374.956 435.064C373.953 435.235 372.823 435.32 371.564 435.32ZM389.725 435.32C387.805 435.32 386.131 435.011 384.701 434.392C383.293 433.773 382.195 432.856 381.405 431.64C380.637 430.424 380.253 428.931 380.253 427.16V414.392H385.405V426.68C385.405 428.109 385.779 429.176 386.525 429.88C387.272 430.584 388.339 430.936 389.725 430.936C391.112 430.936 392.179 430.584 392.925 429.88C393.672 429.176 394.045 428.109 394.045 426.68V414.392H399.197V427.16C399.197 428.931 398.803 430.424 398.013 431.64C397.245 432.856 396.147 433.773 394.717 434.392C393.309 435.011 391.645 435.32 389.725 435.32ZM402.288 435V414.392H413.168C415.238 414.392 416.795 414.883 417.84 415.864C418.907 416.845 419.44 418.232 419.44 420.024C419.44 421.112 419.227 422.029 418.8 422.776C418.395 423.501 417.851 424.067 417.168 424.472C418.107 424.813 418.843 425.315 419.376 425.976C419.91 426.637 420.176 427.629 420.176 428.952C420.176 430.915 419.6 432.419 418.448 433.464C417.296 434.488 415.643 435 413.488 435H402.288ZM407.44 422.776H411.632C412.528 422.776 413.179 422.573 413.584 422.168C413.99 421.763 414.192 421.197 414.192 420.472C414.192 419.683 413.99 419.096 413.584 418.712C413.179 418.307 412.443 418.104 411.376 418.104H407.44V422.776ZM407.44 431.32H412.144C413.083 431.32 413.776 431.128 414.224 430.744C414.694 430.36 414.928 429.677 414.928 428.696C414.928 427.907 414.704 427.32 414.256 426.936C413.808 426.531 413.04 426.328 411.952 426.328H407.44V431.32ZM426.462 435V427.416L419.07 414.392H424.446L429.054 422.936L433.662 414.392H439.038L431.646 427.416V435H426.462ZM367.692 458.32C366.327 458.32 365.047 458.213 363.852 458C362.679 457.808 361.665 457.52 360.812 457.136V452.752C361.751 453.157 362.785 453.488 363.916 453.744C365.068 454 366.156 454.128 367.18 454.128C368.46 454.128 369.409 454.011 370.028 453.776C370.668 453.541 370.988 453.029 370.988 452.24C370.988 451.707 370.828 451.28 370.508 450.96C370.209 450.64 369.708 450.363 369.004 450.128C368.321 449.872 367.383 449.573 366.188 449.232C364.78 448.805 363.66 448.336 362.828 447.824C361.996 447.291 361.399 446.651 361.036 445.904C360.673 445.157 360.492 444.24 360.492 443.152C360.492 441.189 361.196 439.685 362.604 438.64C364.012 437.595 366.092 437.072 368.844 437.072C370.039 437.072 371.201 437.168 372.332 437.36C373.463 437.531 374.38 437.733 375.084 437.968V442.384C374.167 442.021 373.239 441.755 372.3 441.584C371.383 441.413 370.487 441.328 369.612 441.328C368.46 441.328 367.521 441.435 366.796 441.648C366.092 441.861 365.74 442.352 365.74 443.12C365.74 443.568 365.868 443.931 366.124 444.208C366.38 444.464 366.817 444.699 367.436 444.912C368.076 445.125 368.94 445.381 370.028 445.68C371.713 446.128 373.004 446.672 373.9 447.312C374.796 447.931 375.415 448.656 375.756 449.488C376.097 450.299 376.268 451.216 376.268 452.24C376.268 454.053 375.564 455.525 374.156 456.656C372.748 457.765 370.593 458.32 367.692 458.32ZM388.514 458.32C385.165 458.32 382.615 457.467 380.866 455.76C379.117 454.053 378.242 451.397 378.242 447.792C378.242 443.973 379.117 441.232 380.866 439.568C382.615 437.904 385.165 437.072 388.514 437.072C391.863 437.072 394.413 437.904 396.162 439.568C397.911 441.232 398.786 443.973 398.786 447.792C398.786 451.397 397.911 454.053 396.162 455.76C394.413 457.467 391.863 458.32 388.514 458.32ZM388.514 453.936C390.242 453.936 391.501 453.445 392.29 452.464C393.101 451.461 393.506 449.904 393.506 447.792C393.506 445.488 393.101 443.867 392.29 442.928C391.501 441.968 390.242 441.488 388.514 441.488C386.765 441.488 385.485 441.968 384.674 442.928C383.885 443.867 383.49 445.488 383.49 447.792C383.49 449.904 383.885 451.461 384.674 452.464C385.485 453.445 386.765 453.936 388.514 453.936ZM401.413 458V437.392H416.389V441.36H406.565V445.68H415.205V449.712H406.565V458H401.413ZM423.15 458V441.36H417.102V437.392H434.35V441.36H428.302V458H423.15Z" fill="black"/>
<path d="M408.25 356.292H401.52V387.709H408.25C411.961 387.709 414.983 384.806 414.983 381.241V362.761C414.983 359.195 411.961 356.292 408.25 356.292Z" fill="black"/>
<path d="M424.5 334.5H374.5C367.596 334.5 362 340.096 362 347V397C362 403.904 367.596 409.5 374.5 409.5H424.5C431.404 409.5 437 403.904 437 397V347C437 340.096 431.404 334.5 424.5 334.5ZM388.25 393.25H383.25V350.75H388.25V393.25ZM420.75 381.241C420.751 382.85 420.416 384.442 419.766 385.914C419.132 387.35 418.222 388.647 417.087 389.733C415.939 390.835 414.591 391.708 413.115 392.306C411.57 392.933 409.917 393.253 408.25 393.25H395.75V350.75H408.25C409.935 350.75 411.571 351.067 413.116 351.692C414.604 352.297 415.941 353.162 417.089 354.266C418.236 355.37 419.136 356.656 419.768 358.082C420.416 359.557 420.75 361.15 420.75 362.761V381.241Z" fill="black"/>
</g>
<defs>
<filter id="filter0_f_37_16" x="-10" y="-10" width="820" height="820" filterUnits="userSpaceOnUse" color-interpolation-filters="sRGB">
<feFlood flood-opacity="0" result="BackgroundImageFix"/>
<feBlend mode="normal" in="SourceGraphic" in2="BackgroundImageFix" result="shape"/>
<feGaussianBlur stdDeviation="5" result="effect1_foregroundBlur_37_16"/>
</filter>
<filter id="filter1_d_37_16" x="38.3959" y="42.3959" width="177.71" height="177.71" filterUnits="userSpaceOnUse" color-interpolation-filters="sRGB">
<feFlood flood-opacity="0" result="BackgroundImageFix"/>
<feColorMatrix in="SourceAlpha" type="matrix" values="0 0 0 0 0 0 0 0 0 0 0 0 0 0 0 0 0 0 127 0" result="hardAlpha"/>
<feOffset dy="4"/>
<feGaussianBlur stdDeviation="2"/>
<feComposite in2="hardAlpha" operator="out"/>
<feColorMatrix type="matrix" values="0 0 0 0 0 0 0 0 0 0 0 0 0 0 0 0 0 0 0.25 0"/>
<feBlend mode="normal" in2="BackgroundImageFix" result="effect1_dropShadow_37_16"/>
<feBlend mode="normal" in="SourceGraphic" in2="effect1_dropShadow_37_16" result="shape"/>
</filter>
<filter id="filter2_d_37_16" x="43.3105" y="47.3105" width="167.881" height="167.881" filterUnits="userSpaceOnUse" color-interpolation-filters="sRGB">
<feFlood flood-opacity="0" result="BackgroundImageFix"/>
<feColorMatrix in="SourceAlpha" type="matrix" values="0 0 0 0 0 0 0 0 0 0 0 0 0 0 0 0 0 0 127 0" result="hardAlpha"/>
<feOffset dy="4"/>
<feGaussianBlur stdDeviation="2"/>
<feComposite in2="hardAlpha" operator="out"/>
<feColorMatrix type="matrix" values="0 0 0 0 0 0 0 0 0 0 0 0 0 0 0 0 0 0 0.25 0"/>
<feBlend mode="normal" in2="BackgroundImageFix" result="effect1_dropShadow_37_16"/>
<feBlend mode="normal" in="SourceGraphic" in2="effect1_dropShadow_37_16" result="shape"/>
</filter>
<filter id="filter3_d_37_16" x="214.167" y="36.3348" width="189.833" height="189.833" filterUnits="userSpaceOnUse" color-interpolation-filters="sRGB">
<feFlood flood-opacity="0" result="BackgroundImageFix"/>
<feColorMatrix in="SourceAlpha" type="matrix" values="0 0 0 0 0 0 0 0 0 0 0 0 0 0 0 0 0 0 127 0" result="hardAlpha"/>
<feOffset dy="4"/>
<feGaussianBlur stdDeviation="2"/>
<feComposite in2="hardAlpha" operator="out"/>
<feColorMatrix type="matrix" values="0 0 0 0 0 0 0 0 0 0 0 0 0 0 0 0 0 0 0.25 0"/>
<feBlend mode="normal" in2="BackgroundImageFix" result="effect1_dropShadow_37_16"/>
<feBlend mode="normal" in="SourceGraphic" in2="effect1_dropShadow_37_16" result="shape"/>
</filter>
<filter id="filter4_d_37_16" x="225.143" y="47.3105" width="167.881" height="167.881" filterUnits="userSpaceOnUse" color-interpolation-filters="sRGB">
<feFlood flood-opacity="0" result="BackgroundImageFix"/>
<feColorMatrix in="SourceAlpha" type="matrix" values="0 0 0 0 0 0 0 0 0 0 0 0 0 0 0 0 0 0 127 0" result="hardAlpha"/>
<feOffset dy="4"/>
<feGaussianBlur stdDeviation="2"/>
<feComposite in2="hardAlpha" operator="out"/>
<feColorMatrix type="matrix" values="0 0 0 0 0 0 0 0 0 0 0 0 0 0 0 0 0 0 0.25 0"/>
<feBlend mode="normal" in2="BackgroundImageFix" result="effect1_dropShadow_37_16"/>
<feBlend mode="normal" in="SourceGraphic" in2="effect1_dropShadow_37_16" result="shape"/>
</filter>
<filter id="filter5_d_37_16" x="402.061" y="42.3959" width="177.71" height="177.71" filterUnits="userSpaceOnUse" color-interpolation-filters="sRGB">
<feFlood flood-opacity="0" result="BackgroundImageFix"/>
<feColorMatrix in="SourceAlpha" type="matrix" values="0 0 0 0 0 0 0 0 0 0 0 0 0 0 0 0 0 0 127 0" result="hardAlpha"/>
<feOffset dy="4"/>
<feGaussianBlur stdDeviation="2"/>
<feComposite in2="hardAlpha" operator="out"/>
<feColorMatrix type="matrix" values="0 0 0 0 0 0 0 0 0 0 0 0 0 0 0 0 0 0 0.25 0"/>
<feBlend mode="normal" in2="BackgroundImageFix" result="effect1_dropShadow_37_16"/>
<feBlend mode="normal" in="SourceGraphic" in2="effect1_dropShadow_37_16" result="shape"/>
</filter>
<filter id="filter6_d_37_16" x="406.976" y="47.3105" width="167.881" height="167.881" filterUnits="userSpaceOnUse" color-interpolation-filters="sRGB">
<feFlood flood-opacity="0" result="BackgroundImageFix"/>
<feColorMatrix in="SourceAlpha" type="matrix" values="0 0 0 0 0 0 0 0 0 0 0 0 0 0 0 0 0 0 127 0" result="hardAlpha"/>
<feOffset dy="4"/>
<feGaussianBlur stdDeviation="2"/>
<feComposite in2="hardAlpha" operator="out"/>
<feColorMatrix type="matrix" values="0 0 0 0 0 0 0 0 0 0 0 0 0 0 0 0 0 0 0.25 0"/>
<feBlend mode="normal" in2="BackgroundImageFix" result="effect1_dropShadow_37_16"/>
<feBlend mode="normal" in="SourceGraphic" in2="effect1_dropShadow_37_16" result="shape"/>
</filter>
<filter id="filter7_d_37_16" x="588.808" y="47.3105" width="167.881" height="167.881" filterUnits="userSpaceOnUse" color-interpolation-filters="sRGB">
<feFlood flood-opacity="0" result="BackgroundImageFix"/>
<feColorMatrix in="SourceAlpha" type="matrix" values="0 0 0 0 0 0 0 0 0 0 0 0 0 0 0 0 0 0 127 0" result="hardAlpha"/>
<feOffset dy="4"/>
<feGaussianBlur stdDeviation="2"/>
<feComposite in2="hardAlpha" operator="out"/>
<feColorMatrix type="matrix" values="0 0 0 0 0 0 0 0 0 0 0 0 0 0 0 0 0 0 0.25 0"/>
<feBlend mode="normal" in2="BackgroundImageFix" result="effect1_dropShadow_37_16"/>
<feBlend mode="normal" in="SourceGraphic" in2="effect1_dropShadow_37_16" result="shape"/>
</filter>
<filter id="filter8_d_37_16" x="588.808" y="47.3105" width="167.881" height="167.881" filterUnits="userSpaceOnUse" color-interpolation-filters="sRGB">
<feFlood flood-opacity="0" result="BackgroundImageFix"/>
<feColorMatrix in="SourceAlpha" type="matrix" values="0 0 0 0 0 0 0 0 0 0 0 0 0 0 0 0 0 0 127 0" result="hardAlpha"/>
<feOffset dy="4"/>
<feGaussianBlur stdDeviation="2"/>
<feComposite in2="hardAlpha" operator="out"/>
<feColorMatrix type="matrix" values="0 0 0 0 0 0 0 0 0 0 0 0 0 0 0 0 0 0 0.25 0"/>
<feBlend mode="normal" in2="BackgroundImageFix" result="effect1_dropShadow_37_16"/>
<feBlend mode="normal" in="SourceGraphic" in2="effect1_dropShadow_37_16" result="shape"/>
</filter>
<filter id="filter9_d_37_16" x="38.3959" y="224.229" width="177.71" height="177.71" filterUnits="userSpaceOnUse" color-interpolation-filters="sRGB">
<feFlood flood-opacity="0" result="BackgroundImageFix"/>
<feColorMatrix in="SourceAlpha" type="matrix" values="0 0 0 0 0 0 0 0 0 0 0 0 0 0 0 0 0 0 127 0" result="hardAlpha"/>
<feOffset dy="4"/>
<feGaussianBlur stdDeviation="2"/>
<feComposite in2="hardAlpha" operator="out"/>
<feColorMatrix type="matrix" values="0 0 0 0 0 0 0 0 0 0 0 0 0 0 0 0 0 0 0.25 0"/>
<feBlend mode="normal" in2="BackgroundImageFix" result="effect1_dropShadow_37_16"/>
<feBlend mode="normal" in="SourceGraphic" in2="effect1_dropShadow_37_16" result="shape"/>
</filter>
<filter id="filter10_d_37_16" x="43.3105" y="229.143" width="167.881" height="167.881" filterUnits="userSpaceOnUse" color-interpolation-filters="sRGB">
<feFlood flood-opacity="0" result="BackgroundImageFix"/>
<feColorMatrix in="SourceAlpha" type="matrix" values="0 0 0 0 0 0 0 0 0 0 0 0 0 0 0 0 0 0 127 0" result="hardAlpha"/>
<feOffset dy="4"/>
<feGaussianBlur stdDeviation="2"/>
<feComposite in2="hardAlpha" operator="out"/>
<feColorMatrix type="matrix" values="0 0 0 0 0 0 0 0 0 0 0 0 0 0 0 0 0 0 0.25 0"/>
<feBlend mode="normal" in2="BackgroundImageFix" result="effect1_dropShadow_37_16"/>
<feBlend mode="normal" in="SourceGraphic" in2="effect1_dropShadow_37_16" result="shape"/>
</filter>
<filter id="filter11_d_37_16" x="220.229" y="224.229" width="177.71" height="177.71" filterUnits="userSpaceOnUse" color-interpolation-filters="sRGB">
<feFlood flood-opacity="0" result="BackgroundImageFix"/>
<feColorMatrix in="SourceAlpha" type="matrix" values="0 0 0 0 0 0 0 0 0 0 0 0 0 0 0 0 0 0 127 0" result="hardAlpha"/>
<feOffset dy="4"/>
<feGaussianBlur stdDeviation="2"/>
<feComposite in2="hardAlpha" operator="out"/>
<feColorMatrix type="matrix" values="0 0 0 0 0 0 0 0 0 0 0 0 0 0 0 0 0 0 0.25 0"/>
<feBlend mode="normal" in2="BackgroundImageFix" result="effect1_dropShadow_37_16"/>
<feBlend mode="normal" in="SourceGraphic" in2="effect1_dropShadow_37_16" result="shape"/>
</filter>
<filter id="filter12_d_37_16" x="225.143" y="229.143" width="167.881" height="167.881" filterUnits="userSpaceOnUse" color-interpolation-filters="sRGB">
<feFlood flood-opacity="0" result="BackgroundImageFix"/>
<feColorMatrix in="SourceAlpha" type="matrix" values="0 0 0 0 0 0 0 0 0 0 0 0 0 0 0 0 0 0 127 0" result="hardAlpha"/>
<feOffset dy="4"/>
<feGaussianBlur stdDeviation="2"/>
<feComposite in2="hardAlpha" operator="out"/>
<feColorMatrix type="matrix" values="0 0 0 0 0 0 0 0 0 0 0 0 0 0 0 0 0 0 0.25 0"/>
<feBlend mode="normal" in2="BackgroundImageFix" result="effect1_dropShadow_37_16"/>
<feBlend mode="normal" in="SourceGraphic" in2="effect1_dropShadow_37_16" result="shape"/>
</filter>
<filter id="filter13_d_37_16" x="402.061" y="224.229" width="177.71" height="177.71" filterUnits="userSpaceOnUse" color-interpolation-filters="sRGB">
<feFlood flood-opacity="0" result="BackgroundImageFix"/>
<feColorMatrix in="SourceAlpha" type="matrix" values="0 0 0 0 0 0 0 0 0 0 0 0 0 0 0 0 0 0 127 0" result="hardAlpha"/>
<feOffset dy="4"/>
<feGaussianBlur stdDeviation="2"/>
<feComposite in2="hardAlpha" operator="out"/>
<feColorMatrix type="matrix" values="0 0 0 0 0 0 0 0 0 0 0 0 0 0 0 0 0 0 0.25 0"/>
<feBlend mode="normal" in2="BackgroundImageFix" result="effect1_dropShadow_37_16"/>
<feBlend mode="normal" in="SourceGraphic" in2="effect1_dropShadow_37_16" result="shape"/>
</filter>
<filter id="filter14_d_37_16" x="406.976" y="229.143" width="167.881" height="167.881" filterUnits="userSpaceOnUse" color-interpolation-filters="sRGB">
<feFlood flood-opacity="0" result="BackgroundImageFix"/>
<feColorMatrix in="SourceAlpha" type="matrix" values="0 0 0 0 0 0 0 0 0 0 0 0 0 0 0 0 0 0 127 0" result="hardAlpha"/>
<feOffset dy="4"/>
<feGaussianBlur stdDeviation="2"/>
<feComposite in2="hardAlpha" operator="out"/>
<feColorMatrix type="matrix" values="0 0 0 0 0 0 0 0 0 0 0 0 0 0 0 0 0 0 0.25 0"/>
<feBlend mode="normal" in2="BackgroundImageFix" result="effect1_dropShadow_37_16"/>
<feBlend mode="normal" in="SourceGraphic" in2="effect1_dropShadow_37_16" result="shape"/>
</filter>
<filter id="filter15_d_37_16" x="588.808" y="229.143" width="167.881" height="167.881" filterUnits="userSpaceOnUse" color-interpolation-filters="sRGB">
<feFlood flood-opacity="0" result="BackgroundImageFix"/>
<feColorMatrix in="SourceAlpha" type="matrix" values="0 0 0 0 0 0 0 0 0 0 0 0 0 0 0 0 0 0 127 0" result="hardAlpha"/>
<feOffset dy="4"/>
<feGaussianBlur stdDeviation="2"/>
<feComposite in2="hardAlpha" operator="out"/>
<feColorMatrix type="matrix" values="0 0 0 0 0 0 0 0 0 0 0 0 0 0 0 0 0 0 0.25 0"/>
<feBlend mode="normal" in2="BackgroundImageFix" result="effect1_dropShadow_37_16"/>
<feBlend mode="normal" in="SourceGraphic" in2="effect1_dropShadow_37_16" result="shape"/>
</filter>
<filter id="filter16_d_37_16" x="588.808" y="229.143" width="167.881" height="167.881" filterUnits="userSpaceOnUse" color-interpolation-filters="sRGB">
<feFlood flood-opacity="0" result="BackgroundImageFix"/>
<feColorMatrix in="SourceAlpha" type="matrix" values="0 0 0 0 0 0 0 0 0 0 0 0 0 0 0 0 0 0 127 0" result="hardAlpha"/>
<feOffset dy="4"/>
<feGaussianBlur stdDeviation="2"/>
<feComposite in2="hardAlpha" operator="out"/>
<feColorMatrix type="matrix" values="0 0 0 0 0 0 0 0 0 0 0 0 0 0 0 0 0 0 0.25 0"/>
<feBlend mode="normal" in2="BackgroundImageFix" result="effect1_dropShadow_37_16"/>
<feBlend mode="normal" in="SourceGraphic" in2="effect1_dropShadow_37_16" result="shape"/>
</filter>
<filter id="filter17_d_37_16" x="43.3105" y="410.976" width="167.881" height="167.881" filterUnits="userSpaceOnUse" color-interpolation-filters="sRGB">
<feFlood flood-opacity="0" result="BackgroundImageFix"/>
<feColorMatrix in="SourceAlpha" type="matrix" values="0 0 0 0 0 0 0 0 0 0 0 0 0 0 0 0 0 0 127 0" result="hardAlpha"/>
<feOffset dy="4"/>
<feGaussianBlur stdDeviation="2"/>
<feComposite in2="hardAlpha" operator="out"/>
<feColorMatrix type="matrix" values="0 0 0 0 0 0 0 0 0 0 0 0 0 0 0 0 0 0 0.25 0"/>
<feBlend mode="normal" in2="BackgroundImageFix" result="effect1_dropShadow_37_16"/>
<feBlend mode="normal" in="SourceGraphic" in2="effect1_dropShadow_37_16" result="shape"/>
</filter>
<filter id="filter18_d_37_16" x="43.3105" y="410.976" width="167.881" height="167.881" filterUnits="userSpaceOnUse" color-interpolation-filters="sRGB">
<feFlood flood-opacity="0" result="BackgroundImageFix"/>
<feColorMatrix in="SourceAlpha" type="matrix" values="0 0 0 0 0 0 0 0 0 0 0 0 0 0 0 0 0 0 127 0" result="hardAlpha"/>
<feOffset dy="4"/>
<feGaussianBlur stdDeviation="2"/>
<feComposite in2="hardAlpha" operator="out"/>
<feColorMatrix type="matrix" values="0 0 0 0 0 0 0 0 0 0 0 0 0 0 0 0 0 0 0.25 0"/>
<feBlend mode="normal" in2="BackgroundImageFix" result="effect1_dropShadow_37_16"/>
<feBlend mode="normal" in="SourceGraphic" in2="effect1_dropShadow_37_16" result="shape"/>
</filter>
<filter id="filter19_d_37_16" x="214.167" y="400" width="189.833" height="189.833" filterUnits="userSpaceOnUse" color-interpolation-filters="sRGB">
<feFlood flood-opacity="0" result="BackgroundImageFix"/>
<feColorMatrix in="SourceAlpha" type="matrix" values="0 0 0 0 0 0 0 0 0 0 0 0 0 0 0 0 0 0 127 0" result="hardAlpha"/>
<feOffset dy="4"/>
<feGaussianBlur stdDeviation="2"/>
<feComposite in2="hardAlpha" operator="out"/>
<feColorMatrix type="matrix" values="0 0 0 0 0 0 0 0 0 0 0 0 0 0 0 0 0 0 0.25 0"/>
<feBlend mode="normal" in2="BackgroundImageFix" result="effect1_dropShadow_37_16"/>
<feBlend mode="normal" in="SourceGraphic" in2="effect1_dropShadow_37_16" result="shape"/>
</filter>
<filter id="filter20_d_37_16" x="225.143" y="410.976" width="167.881" height="167.881" filterUnits="userSpaceOnUse" color-interpolation-filters="sRGB">
<feFlood flood-opacity="0" result="BackgroundImageFix"/>
<feColorMatrix in="SourceAlpha" type="matrix" values="0 0 0 0 0 0 0 0 0 0 0 0 0 0 0 0 0 0 127 0" result="hardAlpha"/>
<feOffset dy="4"/>
<feGaussianBlur stdDeviation="2"/>
<feComposite in2="hardAlpha" operator="out"/>
<feColorMatrix type="matrix" values="0 0 0 0 0 0 0 0 0 0 0 0 0 0 0 0 0 0 0.25 0"/>
<feBlend mode="normal" in2="BackgroundImageFix" result="effect1_dropShadow_37_16"/>
<feBlend mode="normal" in="SourceGraphic" in2="effect1_dropShadow_37_16" result="shape"/>
</filter>
<filter id="filter21_d_37_16" x="396" y="400" width="189.833" height="189.833" filterUnits="userSpaceOnUse" color-interpolation-filters="sRGB">
<feFlood flood-opacity="0" result="BackgroundImageFix"/>
<feColorMatrix in="SourceAlpha" type="matrix" values="0 0 0 0 0 0 0 0 0 0 0 0 0 0 0 0 0 0 127 0" result="hardAlpha"/>
<feOffset dy="4"/>
<feGaussianBlur stdDeviation="2"/>
<feComposite in2="hardAlpha" operator="out"/>
<feColorMatrix type="matrix" values="0 0 0 0 0 0 0 0 0 0 0 0 0 0 0 0 0 0 0.25 0"/>
<feBlend mode="normal" in2="BackgroundImageFix" result="effect1_dropShadow_37_16"/>
<feBlend mode="normal" in="SourceGraphic" in2="effect1_dropShadow_37_16" result="shape"/>
</filter>
<filter id="filter22_d_37_16" x="406.976" y="410.976" width="167.881" height="167.881" filterUnits="userSpaceOnUse" color-interpolation-filters="sRGB">
<feFlood flood-opacity="0" result="BackgroundImageFix"/>
<feColorMatrix in="SourceAlpha" type="matrix" values="0 0 0 0 0 0 0 0 0 0 0 0 0 0 0 0 0 0 127 0" result="hardAlpha"/>
<feOffset dy="4"/>
<feGaussianBlur stdDeviation="2"/>
<feComposite in2="hardAlpha" operator="out"/>
<feColorMatrix type="matrix" values="0 0 0 0 0 0 0 0 0 0 0 0 0 0 0 0 0 0 0.25 0"/>
<feBlend mode="normal" in2="BackgroundImageFix" result="effect1_dropShadow_37_16"/>
<feBlend mode="normal" in="SourceGraphic" in2="effect1_dropShadow_37_16" result="shape"/>
</filter>
<filter id="filter23_d_37_16" x="586.924" y="409.092" width="171.649" height="171.649" filterUnits="userSpaceOnUse" color-interpolation-filters="sRGB">
<feFlood flood-opacity="0" result="BackgroundImageFix"/>
<feColorMatrix in="SourceAlpha" type="matrix" values="0 0 0 0 0 0 0 0 0 0 0 0 0 0 0 0 0 0 127 0" result="hardAlpha"/>
<feOffset dy="4"/>
<feGaussianBlur stdDeviation="2"/>
<feComposite in2="hardAlpha" operator="out"/>
<feColorMatrix type="matrix" values="0 0 0 0 0 0 0 0 0 0 0 0 0 0 0 0 0 0 0.25 0"/>
<feBlend mode="normal" in2="BackgroundImageFix" result="effect1_dropShadow_37_16"/>
<feBlend mode="normal" in="SourceGraphic" in2="effect1_dropShadow_37_16" result="shape"/>
</filter>
<filter id="filter24_d_37_16" x="588.808" y="410.976" width="167.881" height="167.881" filterUnits="userSpaceOnUse" color-interpolation-filters="sRGB">
<feFlood flood-opacity="0" result="BackgroundImageFix"/>
<feColorMatrix in="SourceAlpha" type="matrix" values="0 0 0 0 0 0 0 0 0 0 0 0 0 0 0 0 0 0 127 0" result="hardAlpha"/>
<feOffset dy="4"/>
<feGaussianBlur stdDeviation="2"/>
<feComposite in2="hardAlpha" operator="out"/>
<feColorMatrix type="matrix" values="0 0 0 0 0 0 0 0 0 0 0 0 0 0 0 0 0 0 0.25 0"/>
<feBlend mode="normal" in2="BackgroundImageFix" result="effect1_dropShadow_37_16"/>
<feBlend mode="normal" in="SourceGraphic" in2="effect1_dropShadow_37_16" result="shape"/>
</filter>
<filter id="filter25_d_37_16" x="43.3105" y="592.808" width="167.881" height="167.881" filterUnits="userSpaceOnUse" color-interpolation-filters="sRGB">
<feFlood flood-opacity="0" result="BackgroundImageFix"/>
<feColorMatrix in="SourceAlpha" type="matrix" values="0 0 0 0 0 0 0 0 0 0 0 0 0 0 0 0 0 0 127 0" result="hardAlpha"/>
<feOffset dy="4"/>
<feGaussianBlur stdDeviation="2"/>
<feComposite in2="hardAlpha" operator="out"/>
<feColorMatrix type="matrix" values="0 0 0 0 0 0 0 0 0 0 0 0 0 0 0 0 0 0 0.25 0"/>
<feBlend mode="normal" in2="BackgroundImageFix" result="effect1_dropShadow_37_16"/>
<feBlend mode="normal" in="SourceGraphic" in2="effect1_dropShadow_37_16" result="shape"/>
</filter>
<filter id="filter26_d_37_16" x="43.3105" y="592.808" width="167.881" height="167.881" filterUnits="userSpaceOnUse" color-interpolation-filters="sRGB">
<feFlood flood-opacity="0" result="BackgroundImageFix"/>
<feColorMatrix in="SourceAlpha" type="matrix" values="0 0 0 0 0 0 0 0 0 0 0 0 0 0 0 0 0 0 127 0" result="hardAlpha"/>
<feOffset dy="4"/>
<feGaussianBlur stdDeviation="2"/>
<feComposite in2="hardAlpha" operator="out"/>
<feColorMatrix type="matrix" values="0 0 0 0 0 0 0 0 0 0 0 0 0 0 0 0 0 0 0.25 0"/>
<feBlend mode="normal" in2="BackgroundImageFix" result="effect1_dropShadow_37_16"/>
<feBlend mode="normal" in="SourceGraphic" in2="effect1_dropShadow_37_16" result="shape"/>
</filter>
<filter id="filter27_d_37_16" x="214.167" y="581.833" width="189.833" height="189.833" filterUnits="userSpaceOnUse" color-interpolation-filters="sRGB">
<feFlood flood-opacity="0" result="BackgroundImageFix"/>
<feColorMatrix in="SourceAlpha" type="matrix" values="0 0 0 0 0 0 0 0 0 0 0 0 0 0 0 0 0 0 127 0" result="hardAlpha"/>
<feOffset dy="4"/>
<feGaussianBlur stdDeviation="2"/>
<feComposite in2="hardAlpha" operator="out"/>
<feColorMatrix type="matrix" values="0 0 0 0 0 0 0 0 0 0 0 0 0 0 0 0 0 0 0.25 0"/>
<feBlend mode="normal" in2="BackgroundImageFix" result="effect1_dropShadow_37_16"/>
<feBlend mode="normal" in="SourceGraphic" in2="effect1_dropShadow_37_16" result="shape"/>
</filter>
<filter id="filter28_d_37_16" x="225.143" y="592.808" width="167.881" height="167.881" filterUnits="userSpaceOnUse" color-interpolation-filters="sRGB">
<feFlood flood-opacity="0" result="BackgroundImageFix"/>
<feColorMatrix in="SourceAlpha" type="matrix" values="0 0 0 0 0 0 0 0 0 0 0 0 0 0 0 0 0 0 127 0" result="hardAlpha"/>
<feOffset dy="4"/>
<feGaussianBlur stdDeviation="2"/>
<feComposite in2="hardAlpha" operator="out"/>
<feColorMatrix type="matrix" values="0 0 0 0 0 0 0 0 0 0 0 0 0 0 0 0 0 0 0.25 0"/>
<feBlend mode="normal" in2="BackgroundImageFix" result="effect1_dropShadow_37_16"/>
<feBlend mode="normal" in="SourceGraphic" in2="effect1_dropShadow_37_16" result="shape"/>
</filter>
<filter id="filter29_d_37_16" x="214.167" y="581.833" width="189.833" height="189.833" filterUnits="userSpaceOnUse" color-interpolation-filters="sRGB">
<feFlood flood-opacity="0" result="BackgroundImageFix"/>
<feColorMatrix in="SourceAlpha" type="matrix" values="0 0 0 0 0 0 0 0 0 0 0 0 0 0 0 0 0 0 127 0" result="hardAlpha"/>
<feOffset dy="4"/>
<feGaussianBlur stdDeviation="2"/>
<feComposite in2="hardAlpha" operator="out"/>
<feColorMatrix type="matrix" values="0 0 0 0 0 0 0 0 0 0 0 0 0 0 0 0 0 0 0.25 0"/>
<feBlend mode="normal" in2="BackgroundImageFix" result="effect1_dropShadow_37_16"/>
<feBlend mode="normal" in="SourceGraphic" in2="effect1_dropShadow_37_16" result="shape"/>
</filter>
<filter id="filter30_d_37_16" x="396" y="581.833" width="189.833" height="189.833" filterUnits="userSpaceOnUse" color-interpolation-filters="sRGB">
<feFlood flood-opacity="0" result="BackgroundImageFix"/>
<feColorMatrix in="SourceAlpha" type="matrix" values="0 0 0 0 0 0 0 0 0 0 0 0 0 0 0 0 0 0 127 0" result="hardAlpha"/>
<feOffset dy="4"/>
<feGaussianBlur stdDeviation="2"/>
<feComposite in2="hardAlpha" operator="out"/>
<feColorMatrix type="matrix" values="0 0 0 0 0 0 0 0 0 0 0 0 0 0 0 0 0 0 0.25 0"/>
<feBlend mode="normal" in2="BackgroundImageFix" result="effect1_dropShadow_37_16"/>
<feBlend mode="normal" in="SourceGraphic" in2="effect1_dropShadow_37_16" result="shape"/>
</filter>
<filter id="filter31_d_37_16" x="406.976" y="592.808" width="167.881" height="167.881" filterUnits="userSpaceOnUse" color-interpolation-filters="sRGB">
<feFlood flood-opacity="0" result="BackgroundImageFix"/>
<feColorMatrix in="SourceAlpha" type="matrix" values="0 0 0 0 0 0 0 0 0 0 0 0 0 0 0 0 0 0 127 0" result="hardAlpha"/>
<feOffset dy="4"/>
<feGaussianBlur stdDeviation="2"/>
<feComposite in2="hardAlpha" operator="out"/>
<feColorMatrix type="matrix" values="0 0 0 0 0 0 0 0 0 0 0 0 0 0 0 0 0 0 0.25 0"/>
<feBlend mode="normal" in2="BackgroundImageFix" result="effect1_dropShadow_37_16"/>
<feBlend mode="normal" in="SourceGraphic" in2="effect1_dropShadow_37_16" result="shape"/>
</filter>
<filter id="filter32_d_37_16" x="577.833" y="581.833" width="189.833" height="189.833" filterUnits="userSpaceOnUse" color-interpolation-filters="sRGB">
<feFlood flood-opacity="0" result="BackgroundImageFix"/>
<feColorMatrix in="SourceAlpha" type="matrix" values="0 0 0 0 0 0 0 0 0 0 0 0 0 0 0 0 0 0 127 0" result="hardAlpha"/>
<feOffset dy="4"/>
<feGaussianBlur stdDeviation="2"/>
<feComposite in2="hardAlpha" operator="out"/>
<feColorMatrix type="matrix" values="0 0 0 0 0 0 0 0 0 0 0 0 0 0 0 0 0 0 0.25 0"/>
<feBlend mode="normal" in2="BackgroundImageFix" result="effect1_dropShadow_37_16"/>
<feBlend mode="normal" in="SourceGraphic" in2="effect1_dropShadow_37_16" result="shape"/>
</filter>
<filter id="filter33_d_37_16" x="588.808" y="592.808" width="167.881" height="167.881" filterUnits="userSpaceOnUse" color-interpolation-filters="sRGB">
<feFlood flood-opacity="0" result="BackgroundImageFix"/>
<feColorMatrix in="SourceAlpha" type="matrix" values="0 0 0 0 0 0 0 0 0 0 0 0 0 0 0 0 0 0 127 0" result="hardAlpha"/>
<feOffset dy="4"/>
<feGaussianBlur stdDeviation="2"/>
<feComposite in2="hardAlpha" operator="out"/>
<feColorMatrix type="matrix" values="0 0 0 0 0 0 0 0 0 0 0 0 0 0 0 0 0 0 0.25 0"/>
<feBlend mode="normal" in2="BackgroundImageFix" result="effect1_dropShadow_37_16"/>
<feBlend mode="normal" in="SourceGraphic" in2="effect1_dropShadow_37_16" result="shape"/>
</filter>
<filter id="filter34_d_37_16" x="246" y="250" width="308" height="308" filterUnits="userSpaceOnUse" color-interpolation-filters="sRGB">
<feFlood flood-opacity="0" result="BackgroundImageFix"/>
<feColorMatrix in="SourceAlpha" type="matrix" values="0 0 0 0 0 0 0 0 0 0 0 0 0 0 0 0 0 0 127 0" result="hardAlpha"/>
<feOffset dy="4"/>
<feGaussianBlur stdDeviation="2"/>
<feComposite in2="hardAlpha" operator="out"/>
<feColorMatrix type="matrix" values="0 0 0 0 0 0 0 0 0 0 0 0 0 0 0 0 0 0 0.25 0"/>
<feBlend mode="normal" in2="BackgroundImageFix" result="effect1_dropShadow_37_16"/>
<feBlend mode="normal" in="SourceGraphic" in2="effect1_dropShadow_37_16" result="shape"/>
</filter>
<linearGradient id="paint0_linear_37_16" x1="516.695" y1="264.433" x2="463.584" y2="356.424" gradientUnits="userSpaceOnUse">
<stop stop-color="#EC790F"/>
<stop offset="1" stop-color="#F51032"/>
</linearGradient>
<clipPath id="clip0_37_16">
<rect x="104.514" y="42.3959" width="124.237" height="124.237" rx="30" transform="rotate(30 104.514 42.3959)" fill="white"/>
</clipPath>
<clipPath id="clip1_37_16">
<rect x="284.723" y="36.3348" width="133.111" height="133.111" rx="30" transform="rotate(30 284.723 36.3348)" fill="white"/>
</clipPath>
<clipPath id="clip2_37_16">
<rect x="468.179" y="42.3959" width="124.237" height="124.237" rx="30" transform="rotate(30 468.179 42.3959)" fill="white"/>
</clipPath>
<clipPath id="clip3_37_16">
<rect x="651.636" y="48.457" width="115.363" height="115.363" rx="30" transform="rotate(30 651.636 48.457)" fill="white"/>
</clipPath>
<clipPath id="clip4_37_16">
<rect x="104.514" y="224.229" width="124.237" height="124.237" rx="30" transform="rotate(30 104.514 224.229)" fill="white"/>
</clipPath>
<clipPath id="clip5_37_16">
<rect x="286.347" y="224.229" width="124.237" height="124.237" rx="30" transform="rotate(30 286.347 224.229)" fill="white"/>
</clipPath>
<clipPath id="clip6_37_16">
<rect x="468.179" y="224.229" width="124.237" height="124.237" rx="30" transform="rotate(30 468.179 224.229)" fill="white"/>
</clipPath>
<clipPath id="clip7_37_16">
<rect x="651.636" y="230.29" width="115.363" height="115.363" rx="30" transform="rotate(30 651.636 230.29)" fill="white"/>
</clipPath>
<clipPath id="clip8_37_16">
<rect x="106.544" y="413.637" width="113.144" height="113.144" rx="30" transform="rotate(30 106.544 413.637)" fill="white"/>
</clipPath>
<clipPath id="clip9_37_16">
<rect x="284.723" y="400" width="133.111" height="133.111" rx="30" transform="rotate(30 284.723 400)" fill="white"/>
</clipPath>
<clipPath id="clip10_37_16">
<rect x="466.555" y="400" width="133.111" height="133.111" rx="30" transform="rotate(30 466.555 400)" fill="white"/>
</clipPath>
<clipPath id="clip11_37_16">
<rect x="650.824" y="409.092" width="119.8" height="119.8" rx="30" transform="rotate(30 650.824 409.092)" fill="white"/>
</clipPath>
<clipPath id="clip12_37_16">
<rect x="106.544" y="595.47" width="113.144" height="113.144" rx="30" transform="rotate(30 106.544 595.47)" fill="white"/>
</clipPath>
<clipPath id="clip13_37_16">
<rect x="284.723" y="581.833" width="133.111" height="133.111" rx="30" transform="rotate(30 284.723 581.833)" fill="white"/>
</clipPath>
<clipPath id="clip14_37_16">
<rect x="466.555" y="581.833" width="133.111" height="133.111" rx="30" transform="rotate(30 466.555 581.833)" fill="white"/>
</clipPath>
<clipPath id="clip15_37_16">
<rect x="648.388" y="581.833" width="133.111" height="133.111" rx="30" transform="rotate(30 648.388 581.833)" fill="white"/>
</clipPath>
</defs>
</svg>
