<svg width="814" height="736" viewBox="0 0 814 736" fill="none" xmlns="http://www.w3.org/2000/svg">
<g filter="url(#filter0_d_10_204)">
<g filter="url(#filter1_d_10_204)">
<rect x="109.89" width="133.111" height="133.111" rx="30" transform="rotate(30 109.89 0)" fill="#FFFDFD"/>
</g>
<g clip-path="url(#clip0_10_204)">
<path fill-rule="evenodd" clip-rule="evenodd" d="M94.7658 80.8825C91.9823 83.0106 89.6053 85.6231 87.7489 88.5947C86.83 90.5579 86.4299 92.7239 86.5868 94.8859C87.2443 98.3265 88.5232 101.619 90.3609 104.601L100.975 126.034C102.122 128.947 103.742 131.651 105.769 134.038C107.199 135.389 108.926 136.387 110.812 136.949C113.903 137.533 117.068 137.604 120.182 137.159L144.239 135.734C147.771 135.846 151.293 135.316 154.634 134.168C156.597 133.219 158.28 131.776 159.517 129.981C161.168 126.858 162.238 123.461 162.674 119.955L175.126 63.1897C175.683 61.4398 175.923 59.6046 175.834 57.7705C175.647 56.6471 175.178 55.5895 174.471 54.6969C173.178 53.3969 171.665 52.3377 170 51.569L150.156 40.1121C148.658 39.0552 146.981 38.277 145.207 37.8147C144.078 37.6464 142.925 37.7713 141.859 38.1773C140.23 39.02 138.766 40.1488 137.537 41.5097L94.7658 80.8825ZM164.906 62.2022C164.964 63.7386 164.748 65.2729 164.267 66.7332L152.536 117.271C149.093 111.884 144.847 107.055 139.945 102.95L148.059 69.26C148.105 69.0599 148.102 68.8516 148.051 68.6527C148 68.4539 147.902 68.2701 147.765 68.117C147.628 67.9638 147.457 67.8456 147.265 67.7724C147.073 67.6991 146.866 67.6729 146.662 67.696C146.389 67.7256 146.133 67.8441 145.934 68.0332L120.918 91.951C114.887 89.7413 108.553 88.4717 102.137 88.1868L140.093 52.79C141.116 51.6395 142.339 50.6839 143.703 49.9697C144.592 49.6315 145.552 49.5228 146.495 49.6537C147.981 50.0486 149.385 50.7073 150.639 51.5984L160.03 57.0202C161.43 57.6612 162.703 58.5483 163.79 59.6392C164.376 60.392 164.762 61.2811 164.912 62.2234L164.906 62.2022ZM124.856 108.176C128.767 110.746 133.409 111.974 138.079 111.673C137.766 113.101 137.167 114.451 136.32 115.642C135.473 116.834 134.394 117.842 133.147 118.607C130.69 119.999 127.894 120.684 125.071 120.584C121.974 120.714 119.302 120.839 117.386 124.158C116.768 125.221 116.402 126.41 116.314 127.636C115.153 126.12 114.466 124.292 114.342 122.386C114.219 120.479 114.662 118.578 115.618 116.924L115.736 116.718C117.062 114.422 118.695 111.594 115.46 109.727C115.01 109.466 114.512 109.296 113.996 109.227C112.956 109.09 111.904 109.371 111.071 110.008C110.657 110.325 110.309 110.719 110.046 111.169C109.227 107.468 109.876 103.594 111.857 100.361C112.661 98.9321 113.676 97.6321 114.868 96.5051C114.743 99.8268 118.761 104.67 124.85 108.186L124.856 108.176Z" fill="#FF5D01"/>
</g>
</g>
<g filter="url(#filter2_d_10_204)">
<g filter="url(#filter3_d_10_204)">
<rect x="291.723" width="133.111" height="133.111" rx="30" transform="rotate(30 291.723 0)" fill="#FFFDFD"/>
</g>
<g clip-path="url(#clip1_10_204)">
<path d="M264.819 68.1067C263.631 63.6718 266.263 59.1133 270.698 57.9249L338.893 39.652C343.328 38.4637 347.887 41.0955 349.075 45.5305L367.348 113.726C368.536 118.161 365.904 122.719 361.469 123.908L293.274 142.18C288.839 143.369 284.281 140.737 283.092 136.302L264.819 68.1067Z" fill="#EE513B"/>
<path d="M324.961 43.5016L318.055 45.3522L322.834 63.1883C321.81 63.9055 320.923 64.8525 320.257 66.0067C318.365 69.2834 318.809 73.2679 321.073 76.031L305.103 103.692C301.578 103.113 297.905 104.72 296.013 107.997C293.572 112.225 295.021 117.631 299.249 120.072C303.477 122.513 308.883 121.064 311.324 116.837C313.039 113.866 312.834 110.313 311.093 107.617L327.243 79.6436L331.812 96.6933C330.822 97.4035 329.963 98.3312 329.314 99.4551C326.873 103.683 328.322 109.089 332.55 111.53C336.778 113.971 342.184 112.522 344.625 108.294C347.065 104.067 345.617 98.6606 341.389 96.2197C340.567 95.7453 339.702 95.4178 338.821 95.229L333.915 76.9179C334.551 76.3293 335.111 75.6361 335.567 74.8461C338.008 70.6182 336.559 65.2121 332.331 62.7712C331.541 62.3151 330.71 61.9949 329.865 61.803L324.961 43.5016Z" fill="white"/>
</g>
</g>
<g filter="url(#filter4_d_10_204)">
<g filter="url(#filter5_d_10_204)">
<rect x="473.555" width="133.111" height="133.111" rx="30" transform="rotate(30 473.555 0)" fill="#FFFDFD"/>
</g>
<g clip-path="url(#clip2_10_204)">
<path fill-rule="evenodd" clip-rule="evenodd" d="M528.801 37.0197C558.746 54.3083 568.9 92.2048 551.813 121.801C534.524 151.746 496.628 161.9 466.683 144.612C437.087 127.524 426.932 89.6278 444.221 59.683C461.308 30.0865 499.205 19.9322 528.801 37.0197ZM505.043 108.727C494.701 112.969 483.103 108.13 479.209 97.9893C475.113 88.1966 480.3 76.7995 490.642 72.5567C501.131 68.8632 512.73 73.7023 516.825 83.4951C520.72 93.636 515.532 105.033 505.043 108.727ZM456.187 127.41L488.189 119.424C479.524 116.742 472.32 110.725 469.068 101.884C464.972 92.0912 467.266 80.8806 473.336 72.7789L443.222 82.3195C443.222 82.3195 443.398 76.3858 447.527 67.6271L494.584 60.9047C508.354 59.5696 521.786 66.8606 526.966 79.6005C532.587 93.9881 525.831 110.515 511.537 117.583L468.36 137.687C464.878 135.677 458.517 130.612 456.187 127.41Z" fill="#00B3E0"/>
</g>
</g>
<g filter="url(#filter6_d_10_204)">
<g filter="url(#filter7_d_10_204)">
<rect x="655.388" width="133.111" height="133.111" rx="30" transform="rotate(30 655.388 0)" fill="#FFFDFD"/>
</g>
<g clip-path="url(#clip3_10_204)">
<path d="M693.53 67.4048C723.318 63.312 718.757 46.833 718.757 46.833C710.797 64.2477 689.98 57.4261 678.454 65.8964C670.589 71.6764 672.398 81.7572 677.094 95.858C677.335 93.4747 677.083 90.8784 676.829 88.2502C675.961 79.2852 675.057 69.9461 693.53 67.4048Z" fill="#E76F00"/>
<path d="M678.362 101.26C678.362 101.26 687.433 99.8397 685.736 91.4622C679.991 63.0483 719.704 74.5868 719.704 74.5868C692.562 72.5567 692.227 80.4592 693.305 90.9177C694.453 102.127 678.362 101.26 678.362 101.26Z" fill="#E76F00"/>
<path d="M687.986 126.666C712.671 127.931 709.262 113.483 702.382 111.192C700.696 110.63 699.869 110.51 699.869 110.51C699.869 110.51 700.927 109.971 702.212 110.214C716.81 113.033 716.576 135.053 687.319 126.936C687.319 126.936 687.764 126.847 687.986 126.666Z" fill="#5382A1"/>
<path d="M655.44 91.4387C644.419 82.9872 665.374 89.3352 665.374 89.3352C665.374 89.3352 658.478 84.7197 647.238 83.8199C633.946 82.7599 668.867 105.93 690.418 111.906C693.123 111.722 696.472 112.143 696.472 112.143C696.472 112.143 688.021 109.061 680.013 105.283C670.218 100.655 660.093 95.0092 655.44 91.4387Z" fill="#5382A1"/>
<path d="M654.609 103.359C648.348 98.8429 654.533 98.1872 654.533 98.1872C634.081 93.8682 657.188 115.701 685.227 122.67C683.182 120.308 682.493 117.749 682.493 117.749C669.455 113.189 662.705 109.197 654.609 103.359Z" fill="#5382A1"/>
<path d="M651.696 115.095C645.484 110.507 650.648 110.529 650.648 110.529C632.549 105.802 652.552 129.175 677.281 132.275C674.742 129.149 673.24 126.364 673.24 126.364C663.415 122.893 659.225 120.647 651.696 115.095Z" fill="#5382A1"/>
<path d="M690.34 144.232C690.34 144.232 691.869 148.218 684.792 146.534C671.337 143.326 634.44 123.4 626.847 113.261C624.118 109.618 632.158 111.391 634.557 112.173C637.062 112.985 638.285 113.81 638.285 113.81C635.866 108.69 609.062 104.249 622.563 115.204C659.38 145.083 698.165 154.97 690.34 144.232Z" fill="#5382A1"/>
<path d="M693.839 153.034C688.258 161.163 659.128 146.732 641.497 135.017C629.995 127.373 628.689 124.111 628.67 124.063C639.024 132.511 658.09 143.968 675.375 150.094C690.696 155.523 693.839 153.034 693.839 153.034Z" fill="#5382A1"/>
</g>
</g>
<g filter="url(#filter8_d_10_204)">
<g filter="url(#filter9_d_10_204)">
<rect x="109.89" y="181.833" width="133.111" height="133.111" rx="30" transform="rotate(30 109.89 181.833)" fill="#FFFDFD"/>
</g>
<path d="M160.668 236.164C163.752 234.804 167.095 234.13 170.465 234.19C173.835 234.249 177.152 235.04 180.186 236.507C178.872 239.358 176.993 241.913 174.663 244.016C172.334 246.12 169.601 247.73 166.632 248.748C163.779 250.038 160.643 250.578 157.523 250.315C154.403 250.053 151.402 248.996 148.805 247.246C149.907 244.679 151.531 242.368 153.573 240.46C155.615 238.552 158.031 237.089 160.668 236.164Z" fill="#A8C2AB"/>
<path d="M146.505 253.078C149.685 254.914 158.106 253.948 165.803 258.392C169.518 260.328 172.668 263.193 174.946 266.709C177.225 270.224 178.555 274.27 178.806 278.451C174.644 278.461 170.559 279.57 166.964 281.668C163.369 283.765 160.393 286.775 158.337 290.393C155.998 294.486 154.905 299.173 155.193 303.878C155.48 308.584 157.135 313.102 159.954 316.88C159.954 316.88 136.68 336.716 124.701 329.8C119.2 326.624 117.059 320.456 111.265 317.111C105.358 313.701 97.2768 314.164 93.4606 311.96C82.5299 305.65 82.369 273.992 93.3542 254.965C104.163 236.244 121.527 233.174 132.495 239.506C139.626 243.624 142.783 250.929 146.505 253.078Z" fill="#A8C2AB"/>
</g>
<g filter="url(#filter10_d_10_204)">
<g filter="url(#filter11_d_10_204)">
<rect x="291.723" y="181.833" width="133.111" height="133.111" rx="30" transform="rotate(30 291.723 181.833)" fill="#FFFDFD"/>
</g>
<g clip-path="url(#clip4_10_204)">
<path d="M343.26 225.677L289.845 217.253L263.569 278.294L288.907 319.82L337.539 321L377.264 267.724L343.26 225.677Z" fill="#DD0031"/>
<path d="M343.26 225.677L288.907 319.82L337.539 321L377.264 267.724L343.26 225.677Z" fill="#C3002F"/>
<path d="M337.254 236.079L274.464 281.732L284.652 287.614L298.081 277.04L321.274 290.43L318.831 307.347L329.019 313.229L337.254 236.079ZM322.597 279.897L306.635 270.681L325.731 256.037L322.597 279.897Z" fill="white"/>
</g>
</g>
<g filter="url(#filter12_d_10_204)">
<g filter="url(#filter13_d_10_204)">
<rect x="473.555" y="181.833" width="133.111" height="133.111" rx="30" transform="rotate(30 473.555 181.833)" fill="#FFFDFD"/>
</g>
<g clip-path="url(#clip5_10_204)">
<path d="M566.281 249.457L483.905 201.898C480.656 200.021 476.501 201.135 474.624 204.384L427.065 286.76C425.189 290.009 426.302 294.164 429.552 296.041L511.927 343.6C515.177 345.476 519.332 344.363 521.208 341.113L568.768 258.738C570.644 255.488 569.53 251.333 566.281 249.457Z" fill="url(#paint0_linear_10_204)"/>
<path d="M485.056 295.024L456.623 293.886L474.8 272.022L467.07 244.646L493.509 255.186L517.167 239.405L515.33 267.784L537.677 285.412L510.104 292.405L500.258 319.079L485.056 295.024Z" fill="white"/>
</g>
</g>
<g filter="url(#filter14_d_10_204)">
<g filter="url(#filter15_d_10_204)">
<rect x="655.388" y="181.833" width="133.111" height="133.111" rx="30" transform="rotate(30 655.388 181.833)" fill="#FFFDFD"/>
</g>
<g clip-path="url(#clip6_10_204)">
<path d="M654.513 316.458C645.868 311.467 638.898 304.024 634.483 295.072C630.068 286.119 628.407 276.058 629.71 266.161C631.012 256.264 635.221 246.976 641.803 239.471C648.384 231.966 657.044 226.581 666.686 223.997C676.328 221.414 686.52 221.748 695.972 224.956C705.425 228.165 713.714 234.105 719.79 242.024C725.867 249.943 729.459 259.487 730.112 269.448C730.765 279.409 728.449 289.34 723.458 297.984C716.754 309.565 705.731 318.014 692.806 321.477C679.88 324.94 666.109 323.135 654.513 316.458ZM702.865 232.711C694.946 228.139 685.849 226.018 676.725 226.616C667.601 227.214 658.859 230.505 651.605 236.071C644.351 241.637 638.91 249.23 635.971 257.888C633.032 266.547 632.726 275.882 635.093 284.714C637.459 293.547 642.392 301.479 649.266 307.508C656.141 313.536 664.649 317.391 673.714 318.585C682.78 319.778 691.996 318.257 700.197 314.213C708.397 310.168 715.215 303.783 719.787 295.865C725.902 285.242 727.554 272.628 724.382 260.789C721.21 248.95 713.472 238.853 702.865 232.711Z" fill="#F5DE19"/>
<path d="M722.07 294.735L639.547 247.091L637.427 250.762L719.951 298.407L722.07 294.735Z" fill="#F5DE19"/>
<path d="M690.699 256.068C678.124 248.882 666.573 240.037 656.357 229.771L659.448 226.868C659.733 227.175 688.672 257.561 729.467 267.294L728.482 271.416C715.215 268.145 702.489 262.976 690.699 256.068Z" fill="#F5DE19"/>
<path d="M630.482 277.22L631.466 273.1C673.538 283.146 702.383 313.462 703.586 314.739L700.495 317.642C700.213 317.337 671.279 286.958 630.482 277.22Z" fill="#F5DE19"/>
<path d="M642.592 304.43C646.535 272.676 662.245 243.556 686.619 222.824L689.166 226.213C665.704 246.236 650.591 274.32 646.806 304.932L642.592 304.43Z" fill="#F5DE19"/>
<path d="M670.606 320.604L668.068 317.207C692.684 298.621 709.447 271.49 715.054 241.16L719.263 241.671C713.494 273.144 696.132 301.31 670.606 320.604Z" fill="#F5DE19"/>
<path d="M705.406 232.542L701.737 230.424L653.215 314.468L656.883 316.586L705.406 232.542Z" fill="#F5DE19"/>
<path d="M682.552 318.076C682.407 320.297 682.891 322.514 683.95 324.471C685.008 326.429 686.597 328.049 688.534 329.144C692.43 331.393 696.047 330.884 697.6 328.192C699.462 324.967 697.567 322.345 694.359 317.995L692.59 315.63C687.472 308.82 685.054 302.595 689.476 294.937C693.548 287.884 702.021 285.616 710.423 290.467C713.259 291.842 715.628 294.022 717.233 296.734C718.838 299.446 719.609 302.571 719.45 305.719L709.411 306.192C709.628 304.708 709.387 303.193 708.721 301.849C708.056 300.504 706.996 299.394 705.685 298.667C705.152 298.283 704.545 298.015 703.903 297.879C703.26 297.743 702.597 297.743 701.955 297.877C701.312 298.012 700.705 298.279 700.171 298.661C699.638 299.044 699.189 299.533 698.855 300.098C697.233 302.908 698.315 305.073 701.341 309.147L703.109 311.512C709.116 319.559 711.603 325.641 707.068 333.496C702.18 341.963 692.847 342.77 683.912 337.611C680.305 335.823 677.291 333.03 675.236 329.568C673.18 326.106 672.17 322.124 672.327 318.101L682.552 318.076ZM648.859 299.71C648.822 303.186 648.877 306.169 652.121 308.042C655.212 309.826 657.858 309.743 660.572 305.041L679.039 273.055L688.443 278.484L669.906 310.592C664.284 320.33 656.014 321.466 647.675 316.652C644.638 315.112 642.138 312.689 640.505 309.701C638.872 306.713 638.183 303.301 638.526 299.914L648.859 299.71Z" fill="#F5DE19" stroke="black" stroke-miterlimit="10"/>
</g>
</g>
<g filter="url(#filter16_d_10_204)">
<g filter="url(#filter17_d_10_204)">
<rect x="109.89" y="363.665" width="133.111" height="133.111" rx="30" transform="rotate(30 109.89 363.665)" fill="#FFFDFD"/>
</g>
<g clip-path="url(#clip7_10_204)">
<path d="M137.118 418.943C125.68 409.236 114.167 405.837 106.111 410.488C100.1 413.959 96.9743 421.357 96.9447 431.177C96.9422 432.013 97.6177 432.693 98.4535 432.695C99.2894 432.698 99.969 432.022 99.9716 431.187C99.9982 422.34 102.696 415.955 107.625 413.11C114.317 409.246 124.586 412.277 135.159 421.251C135.796 421.792 136.751 421.714 137.292 421.076C137.833 420.439 137.755 419.484 137.118 418.943ZM162.875 417.984C160.668 419.399 157.766 419.562 155.339 418.161C151.874 416.161 150.687 411.731 152.687 408.266C154.688 404.801 159.118 403.614 162.582 405.615C166.047 407.615 167.234 412.045 165.234 415.51C165.181 415.6 165.127 415.689 165.072 415.777C172.355 427.143 168.997 449.623 156.782 470.781C151.758 479.483 145.72 487.131 139.275 493.062C138.66 493.628 137.702 493.589 137.136 492.974C136.57 492.359 136.61 491.401 137.225 490.835C143.439 485.117 149.286 477.71 154.16 469.267C165.663 449.345 168.938 428.377 162.875 417.984ZM83.8864 451.031C84.0477 451.109 84.2073 451.193 84.3649 451.284C87.8295 453.284 89.0165 457.714 87.0162 461.179C85.016 464.643 80.5858 465.83 77.1213 463.83C73.6567 461.83 72.4697 457.4 74.4699 453.935C75.8316 451.577 78.3194 450.274 80.862 450.313C86.6862 438.043 108.083 429.441 132.914 429.441C143.228 429.441 153.113 430.922 161.616 433.669C162.412 433.926 162.848 434.78 162.591 435.575C162.334 436.37 161.481 436.807 160.686 436.55C152.491 433.902 142.92 432.468 132.914 432.468C109.53 432.468 89.5071 440.367 83.8864 451.031ZM151.183 502.36C151.19 501.145 151.504 499.915 152.155 498.787C154.155 495.322 158.585 494.135 162.05 496.135C165.515 498.136 166.702 502.566 164.701 506.03C162.701 509.495 158.271 510.682 154.806 508.682C153.441 507.893 152.43 506.728 151.827 505.393C138.421 505.502 121.039 491.463 109.047 470.692C103.942 461.85 100.303 452.646 98.414 443.983C98.2359 443.166 98.7536 442.36 99.5703 442.182C100.387 442.004 101.193 442.521 101.371 443.338C103.192 451.689 106.716 460.601 111.668 469.179C122.986 488.781 139.179 502.02 151.183 502.36ZM163.779 479.596C162.993 479.878 162.126 479.469 161.843 478.683C161.561 477.896 161.97 477.029 162.756 476.747C175.767 472.075 183.493 464.711 183.493 457.001C183.493 451.404 179.452 445.964 172.035 441.552C171.316 441.125 171.08 440.196 171.508 439.478C171.935 438.759 172.864 438.523 173.582 438.951C181.829 443.856 186.52 450.171 186.52 457.001C186.52 466.284 177.857 474.541 163.779 479.596ZM97.9249 472.376C98.0743 471.554 98.8621 471.008 99.6845 471.157C100.507 471.307 101.052 472.095 100.903 472.917C98.4269 486.547 100.938 496.943 107.625 500.804C112.434 503.58 119.099 502.835 126.561 498.701C127.292 498.295 128.214 498.56 128.619 499.291C129.024 500.022 128.759 500.943 128.028 501.348C119.725 505.949 111.982 506.815 106.111 503.425C98.0615 498.777 95.2461 487.121 97.9249 472.376ZM162.08 504.517C163.244 502.5 162.553 499.921 160.537 498.757C158.52 497.592 155.941 498.283 154.776 500.3C153.612 502.317 154.303 504.896 156.32 506.06C158.337 507.225 160.916 506.534 162.08 504.517ZM78.6347 461.209C80.6516 462.373 83.2305 461.682 84.3949 459.665C85.5593 457.649 84.8683 455.07 82.8514 453.905C80.8346 452.741 78.2557 453.432 77.0913 455.449C75.9269 457.466 76.6179 460.044 78.6347 461.209ZM156.852 415.54C158.869 416.704 161.448 416.013 162.612 413.996C163.777 411.979 163.086 409.4 161.069 408.236C159.052 407.072 156.473 407.763 155.309 409.779C154.144 411.796 154.835 414.375 156.852 415.54ZM131.311 461.991C128.555 461.105 127.04 458.154 127.925 455.398C128.811 452.643 131.761 451.127 134.517 452.011C137.273 452.897 138.788 455.847 137.904 458.604C137.019 461.36 134.068 462.875 131.311 461.991Z" fill="#47848F"/>
</g>
</g>
<g filter="url(#filter18_d_10_204)">
<g filter="url(#filter19_d_10_204)">
<rect x="291.723" y="363.665" width="133.111" height="133.111" rx="30" transform="rotate(30 291.723 363.665)" fill="#FFFDFD"/>
</g>
<g clip-path="url(#clip8_10_204)">
<path d="M362.577 490.109L366.713 469.883L374.957 429.781C375.045 429.323 374.987 428.85 374.792 428.427C374.596 428.004 374.274 427.653 373.869 427.423C373.467 427.19 373.003 427.087 372.541 427.13C372.078 427.173 371.641 427.36 371.29 427.663L340.695 454.832L303.554 433.389L311.789 393.301C311.876 392.846 311.818 392.375 311.623 391.954C311.428 391.533 311.107 391.184 310.704 390.955C310.303 390.72 309.838 390.617 309.376 390.66C308.913 390.703 308.476 390.89 308.125 391.195L277.544 418.373L262.091 432.093C261.404 432.705 260.933 433.523 260.747 434.424C260.56 435.325 260.669 436.262 261.057 437.096L289.889 499.969L358.74 493.494C359.658 493.416 360.527 493.045 361.218 492.435C361.909 491.826 362.385 491.01 362.577 490.109Z" fill="#FC6D26"/>
<path d="M289.894 499.943L340.706 454.829L303.565 433.386L289.894 499.943Z" fill="#E24329"/>
<path d="M289.894 499.943L303.551 433.378L277.556 418.37L289.894 499.943Z" fill="#FC6D26"/>
<path d="M277.522 418.379L262.081 432.078C261.394 432.69 260.923 433.507 260.736 434.408C260.55 435.309 260.659 436.246 261.046 437.081L289.878 499.972L277.517 418.386L277.522 418.379Z" fill="#FCA326"/>
<path d="M277.536 418.387L303.56 433.412L311.777 393.323C311.864 392.867 311.807 392.395 311.613 391.973C311.419 391.551 311.098 391.2 310.696 390.969C310.294 390.734 309.828 390.63 309.365 390.672C308.901 390.714 308.462 390.901 308.11 391.205L277.536 418.387Z" fill="#E24329"/>
<path d="M289.894 499.943L340.706 454.829L366.744 469.863L289.894 499.943Z" fill="#FC6D26"/>
<path d="M366.717 469.876L362.567 490.093C362.381 490.995 361.91 491.812 361.222 492.424C360.535 493.036 359.668 493.41 358.751 493.491L289.894 499.943L366.703 469.867L366.717 469.876Z" fill="#FCA326"/>
<path d="M366.717 469.876L340.708 454.859L371.296 427.686C371.648 427.38 372.087 427.193 372.551 427.151C373.015 427.108 373.481 427.213 373.882 427.45C374.71 427.928 375.142 428.879 374.963 429.803L366.732 469.884L366.717 469.876Z" fill="#E24329"/>
</g>
</g>
<g filter="url(#filter20_d_10_204)">
<g filter="url(#filter21_d_10_204)">
<rect x="473.555" y="363.665" width="133.111" height="133.111" rx="30" transform="rotate(30 473.555 363.665)" fill="#FFFDFD"/>
</g>
<g clip-path="url(#clip9_10_204)">
<path fill-rule="evenodd" clip-rule="evenodd" d="M560.195 459.855C568.479 445.507 563.563 427.159 549.214 418.875L503.19 392.303C488.841 384.018 470.494 388.935 462.21 403.283L435.637 449.307C427.353 463.656 432.269 482.004 446.618 490.288L492.642 516.86C506.991 525.145 525.339 520.228 533.623 505.88L560.195 459.855ZM470.241 481.048C468.935 483.309 466.044 484.084 463.783 482.779V482.779C461.522 481.473 460.747 478.582 462.053 476.321L474.99 453.913C476.862 450.671 475.751 446.526 472.509 444.654L470.015 443.214C468.151 442.138 467.512 439.754 468.588 437.89V437.89C469.665 436.026 472.048 435.387 473.912 436.464L498.828 450.849C500.693 451.925 501.331 454.309 500.255 456.173V456.173C499.179 458.037 496.795 458.676 494.931 457.599L492.437 456.159C489.195 454.288 485.05 455.398 483.178 458.64L470.241 481.048ZM521.722 500.685C517.245 508.439 508.393 509.872 498.633 504.237C489.279 498.837 485.951 490.951 489.498 483.744V483.744C489.619 483.5 489.921 483.409 490.156 483.545L497.339 487.692C497.493 487.781 497.555 487.973 497.481 488.136V488.136C496.089 491.237 498.119 495.047 502.7 497.693C507.065 500.213 511.28 499.863 513.018 496.853L513.034 496.826C514.52 494.251 513.425 491.702 509.151 487.897L505.515 484.677C498.336 478.328 497.031 472.512 500.459 466.575L500.474 466.548C504.669 459.282 513.676 458.083 522.351 463.092C531.488 468.367 534.07 476.293 530.813 483.124V483.124C530.718 483.322 530.473 483.398 530.283 483.288L523.267 479.237C523.076 479.127 522.993 478.896 523.07 478.69V478.69C524.221 475.631 522.637 472.114 518.516 469.735C514.461 467.429 510.713 467.723 509.022 470.652L509.006 470.678C507.535 473.227 508.557 475.841 512.617 479.451L516.28 482.686C523.563 489.169 525.26 494.558 521.738 500.659L521.722 500.685Z" fill="#006076"/>
</g>
</g>
<g filter="url(#filter22_d_10_204)">
<g filter="url(#filter23_d_10_204)">
<rect x="655.388" y="363.665" width="133.111" height="133.111" rx="30" transform="rotate(30 655.388 363.665)" fill="#FFFDFD"/>
</g>
<g clip-path="url(#clip10_10_204)">
<path fill-rule="evenodd" clip-rule="evenodd" d="M627.874 424.632C644.415 395.982 681.049 386.166 709.699 402.707C738.348 419.247 748.165 455.882 731.624 484.531C721.293 502.425 703.124 512.972 683.958 514.339L674.953 421.467C674.786 419.739 673.521 418.317 671.825 417.949C670.128 417.581 668.388 418.352 667.52 419.855L637.571 471.73L644.487 475.723L668.207 434.64L675.937 514.373C667.009 513.811 658.071 511.232 649.799 506.456C621.149 489.915 611.333 453.281 627.874 424.632ZM687.057 481.856L711.017 440.357L717.934 444.35L693.974 485.85L687.057 481.856Z" fill="black"/>
</g>
</g>
<g filter="url(#filter24_d_10_204)">
<g filter="url(#filter25_d_10_204)">
<rect x="109.89" y="545.498" width="133.111" height="133.111" rx="30" transform="rotate(30 109.89 545.498)" fill="#FFFDFD"/>
</g>
<g clip-path="url(#clip11_10_204)">
<path d="M148.609 681.518L148.146 644.261L180.65 626.021L172.585 658.362L148.61 681.51L148.609 681.518ZM113.421 657.65L104.572 625.117L137.516 644.138L137.972 681.394L113.414 657.654L113.421 657.65ZM142.382 607.487L175.217 616.883L142.728 635.119L109.777 616.094L142.382 607.487ZM185.56 653.271L196.571 610.99L153.413 599.109L142.363 605.435L131.142 598.846L88.2739 609.694L100.315 652.247L111.629 658.661L111.691 671.402L143.546 702.825L174.65 672.166L174.4 659.419L185.56 653.271Z" fill="black"/>
</g>
</g>
<g filter="url(#filter26_d_10_204)">
<g filter="url(#filter27_d_10_204)">
<rect x="291.723" y="545.498" width="133.111" height="133.111" rx="30" transform="rotate(30 291.723 545.498)" fill="#FFFDFD"/>
</g>
<g filter="url(#filter28_d_10_204)">
<g clip-path="url(#clip12_10_204)">
<path d="M261.452 646.18L262.558 645.68L323.092 607.554L323.488 607.009L324.564 575.737C324.583 575.165 324.422 574.601 324.104 574.125C323.785 573.65 323.325 573.287 322.789 573.087C322.252 572.887 321.667 572.861 321.115 573.012C320.563 573.164 320.073 573.485 319.713 573.93L261.452 646.18Z" fill="#FFC24A"/>
<path d="M262.187 645.74L263.168 645.106L323.075 607.375L324.237 576.028C324.269 575.49 324.125 574.955 323.827 574.505C323.53 574.055 323.094 573.714 322.586 573.532C322.079 573.35 321.525 573.338 321.01 573.497C320.494 573.656 320.044 573.977 319.727 574.414L262.187 645.74Z" fill="#FFA712"/>
<path d="M322.326 630.46L337.424 626.208L338.381 602.644C338.397 602.134 338.275 601.629 338.027 601.184C337.779 600.738 337.414 600.368 336.973 600.113C336.531 599.858 336.028 599.727 335.518 599.735C335.008 599.743 334.51 599.889 334.077 600.158L323.43 606.894L322.953 607.718L322.326 630.46Z" fill="#F4BD62"/>
<path d="M322.386 629.966L337.054 625.85L337.985 602.948C338.054 602.48 337.986 602.003 337.789 601.573C337.593 601.143 337.276 600.779 336.877 600.525C336.479 600.271 336.015 600.138 335.543 600.141C335.07 600.145 334.608 600.285 334.214 600.545L323.444 607.435L323.003 607.848L322.386 629.966Z" fill="#FFA50E"/>
<path d="M261.457 646.188L261.897 646.067L263.137 646.241L321.358 630.756L322.563 629.751L323.49 606.856L261.457 646.188Z" fill="#F6820C"/>
<path d="M290.759 687.866L334.989 688.527L359.395 624.176C359.566 623.721 359.608 623.229 359.517 622.752C359.427 622.275 359.206 621.832 358.881 621.473C358.555 621.113 358.136 620.85 357.671 620.712C357.205 620.575 356.711 620.568 356.242 620.693L261.452 646.18L283.992 683.954C284.693 685.128 285.682 686.103 286.866 686.787C288.051 687.471 289.39 687.84 290.757 687.86" fill="#FDE068"/>
<path d="M334.773 688.195L359.001 624.333C359.214 623.926 359.301 623.466 359.251 623.01C359.202 622.555 359.018 622.124 358.724 621.772C358.43 621.421 358.038 621.165 357.598 621.036C357.158 620.907 356.689 620.912 356.252 621.05L261.877 646.277L284.163 683.64C284.859 684.805 285.841 685.772 287.015 686.45C288.19 687.128 289.519 687.495 290.875 687.515L334.773 688.195Z" fill="#FCCA3F"/>
<path d="M291.083 687.304C289.716 687.284 288.377 686.914 287.192 686.231C286.008 685.547 285.019 684.572 284.318 683.398L261.888 646.057L261.452 646.18L283.992 683.954C284.693 685.128 285.682 686.103 286.866 686.787C288.051 687.471 289.39 687.84 290.757 687.86L334.989 688.527L335.198 687.974L291.083 687.304Z" fill="#EEAB37"/>
</g>
</g>
</g>
<g filter="url(#filter29_d_10_204)">
<g filter="url(#filter30_d_10_204)">
<rect x="473.555" y="545.498" width="133.111" height="133.111" rx="30" transform="rotate(30 473.555 545.498)" fill="#FFFDFD"/>
</g>
<g clip-path="url(#clip13_10_204)">
<path d="M492.919 645.025C498.601 648.305 505.867 646.358 509.148 640.676C512.428 634.994 510.482 627.728 504.799 624.448C499.117 621.167 491.851 623.114 488.571 628.796C485.29 634.478 487.237 641.744 492.919 645.025Z" fill="#00D8FF"/>
<path d="M509.518 616.273C522.813 623.949 534.361 633.115 542.054 641.964C550.598 651.792 553.969 660.975 551.555 665.157C548.983 669.612 538.619 671.339 525.031 668.533C514.213 666.299 501.116 660.924 488.083 653.399C474.391 645.494 463.032 636.793 455.828 628.543C451.318 623.378 448.119 618.203 446.511 613.643C445.066 609.545 445.026 606.282 446.164 604.31C448.587 600.114 457.933 598.373 470.467 600.759C482.006 602.957 496.057 608.501 509.518 616.273ZM512.36 611.35C498.376 603.276 483.737 597.5 471.53 595.175C456.874 592.385 445.233 594.553 441.241 601.468C437.118 608.609 441.347 620.602 451.547 632.282C459.213 641.061 471.049 650.129 485.241 658.322C498.765 666.131 512.413 671.732 523.881 674.1C539.619 677.35 552.299 675.237 556.478 667.999C560.485 661.06 556.316 649.705 546.344 638.235C538.212 628.881 526.174 619.325 512.36 611.35ZM488.074 616.278C501.365 608.596 515.074 603.171 526.583 600.928C539.366 598.436 549.005 600.103 551.421 604.284C553.996 608.737 550.314 618.578 541.095 628.948C533.755 637.203 522.557 645.863 509.527 653.394C495.839 661.306 482.627 666.798 471.881 668.918C465.154 670.244 459.072 670.431 454.318 669.545C450.047 668.75 447.2 667.154 446.061 665.183C443.636 660.988 446.797 652.023 455.126 642.357C462.794 633.459 474.616 624.057 488.074 616.278ZM485.229 611.357C471.248 619.438 458.931 629.233 450.82 638.646C441.081 649.949 437.144 661.115 441.139 668.028C445.266 675.168 457.767 677.495 472.981 674.495C484.417 672.239 498.184 666.516 512.372 658.316C525.893 650.5 537.562 641.476 545.343 632.725C556.021 620.715 560.525 608.674 556.343 601.439C552.333 594.501 540.414 592.44 525.496 595.348C513.33 597.72 499.039 603.375 485.229 611.357ZM477.365 634.861C477.347 619.509 479.495 604.923 483.298 593.831C487.523 581.513 493.782 573.994 498.611 573.989C503.754 573.983 510.442 582.087 514.821 595.252C518.308 605.734 520.218 619.761 520.235 634.811C520.254 650.621 518.414 664.811 514.883 675.179C512.673 681.67 509.797 687.032 506.656 690.708C503.834 694.011 501.03 695.681 498.753 695.684C493.908 695.689 487.719 688.473 483.505 676.43C479.625 665.343 477.384 650.405 477.365 634.861ZM471.681 634.868C471.7 651.016 474.035 666.579 478.139 678.307C483.067 692.389 490.775 701.377 498.76 701.368C507.006 701.358 515.266 691.691 520.264 677.011C524.022 665.977 525.939 651.191 525.92 634.804C525.901 619.187 523.911 604.57 520.215 593.458C515.143 578.21 506.961 568.294 498.604 568.304C490.591 568.314 482.852 577.61 477.921 591.987C473.901 603.711 471.662 618.917 471.681 634.868Z" fill="#00D8FF"/>
</g>
</g>
<g filter="url(#filter31_d_10_204)">
<g filter="url(#filter32_d_10_204)">
<rect x="655.388" y="545.498" width="133.111" height="133.111" rx="30" transform="rotate(30 655.388 545.498)" fill="#FFFDFD"/>
</g>
<g clip-path="url(#clip14_10_204)">
<path d="M749.432 623.954L734.434 601.962C733.588 600.719 732.376 599.77 730.966 599.247C729.556 598.724 728.019 598.653 726.566 599.043L622.781 621.776C621.523 622.048 620.426 622.808 619.729 623.89C619.033 624.971 618.795 626.285 619.067 627.542C619.101 627.692 619.137 627.837 619.184 627.98L621.824 636.228C622.168 637.307 622.879 638.232 623.834 638.841C624.789 639.45 625.927 639.706 627.05 639.563L744.808 624.743C745.698 624.631 746.601 624.769 747.416 625.142C748.231 625.515 748.926 626.109 749.423 626.856C749.919 627.603 750.197 628.473 750.226 629.369C750.254 630.266 750.032 631.152 749.584 631.929L749.723 631.687C750.407 630.502 750.743 629.147 750.692 627.779C750.64 626.411 750.204 625.085 749.432 623.954Z" fill="#0065A9"/>
<path d="M703.8 702.991L677.253 701.003C675.754 700.889 674.327 700.313 673.17 699.354C672.012 698.395 671.181 697.1 670.791 695.648L638.587 594.397C638.195 593.172 638.305 591.842 638.893 590.698C639.481 589.554 640.5 588.691 641.725 588.298C641.871 588.252 642.015 588.211 642.162 588.18L650.625 586.342C651.734 586.098 652.894 586.252 653.901 586.775C654.908 587.299 655.7 588.16 656.138 589.208L702.171 698.592C702.518 699.419 703.09 700.132 703.821 700.652C704.552 701.171 705.413 701.476 706.308 701.533C707.203 701.589 708.096 701.395 708.886 700.971C709.677 700.547 710.333 699.912 710.782 699.135L710.632 699.395C709.946 700.575 708.941 701.538 707.733 702.174C706.525 702.81 705.162 703.093 703.8 702.991Z" fill="#007ACC"/>
<path d="M677.253 701.003C675.754 700.89 674.327 700.313 673.17 699.354C672.012 698.395 671.181 697.1 670.791 695.649C671.013 696.458 671.47 697.183 672.103 697.734C672.736 698.285 673.518 698.637 674.35 698.746C675.182 698.854 676.028 698.715 676.781 698.345C677.535 697.975 678.162 697.391 678.585 696.666L731.347 605.28C731.769 604.55 731.965 603.711 731.91 602.87C731.855 602.029 731.552 601.222 731.038 600.553C730.525 599.885 729.824 599.383 729.026 599.113C728.227 598.842 727.366 598.815 726.552 599.034C728.004 598.645 729.541 598.716 730.951 599.238C732.361 599.761 733.574 600.708 734.422 601.95L749.425 623.926C750.201 625.056 750.642 626.383 750.697 627.753C750.751 629.123 750.417 630.481 749.733 631.669L710.632 699.395C709.947 700.581 708.941 701.551 707.73 702.19C706.518 702.83 705.15 703.115 703.784 703.011L677.253 701.003Z" fill="#1F9CF0"/>
</g>
</g>
<defs>
<filter id="filter0_d_10_204" x="45.396" y="6.0611" width="177.71" height="177.71" filterUnits="userSpaceOnUse" color-interpolation-filters="sRGB">
<feFlood flood-opacity="0" result="BackgroundImageFix"/>
<feColorMatrix in="SourceAlpha" type="matrix" values="0 0 0 0 0 0 0 0 0 0 0 0 0 0 0 0 0 0 127 0" result="hardAlpha"/>
<feOffset dy="4"/>
<feGaussianBlur stdDeviation="2"/>
<feComposite in2="hardAlpha" operator="out"/>
<feColorMatrix type="matrix" values="0 0 0 0 0 0 0 0 0 0 0 0 0 0 0 0 0 0 0.25 0"/>
<feBlend mode="normal" in2="BackgroundImageFix" result="effect1_dropShadow_10_204"/>
<feBlend mode="normal" in="SourceGraphic" in2="effect1_dropShadow_10_204" result="shape"/>
</filter>
<filter id="filter1_d_10_204" x="50.3106" y="10.9758" width="167.881" height="167.881" filterUnits="userSpaceOnUse" color-interpolation-filters="sRGB">
<feFlood flood-opacity="0" result="BackgroundImageFix"/>
<feColorMatrix in="SourceAlpha" type="matrix" values="0 0 0 0 0 0 0 0 0 0 0 0 0 0 0 0 0 0 127 0" result="hardAlpha"/>
<feOffset dy="4"/>
<feGaussianBlur stdDeviation="2"/>
<feComposite in2="hardAlpha" operator="out"/>
<feColorMatrix type="matrix" values="0 0 0 0 0 0 0 0 0 0 0 0 0 0 0 0 0 0 0.25 0"/>
<feBlend mode="normal" in2="BackgroundImageFix" result="effect1_dropShadow_10_204"/>
<feBlend mode="normal" in="SourceGraphic" in2="effect1_dropShadow_10_204" result="shape"/>
</filter>
<filter id="filter2_d_10_204" x="221.167" y="0" width="189.833" height="189.833" filterUnits="userSpaceOnUse" color-interpolation-filters="sRGB">
<feFlood flood-opacity="0" result="BackgroundImageFix"/>
<feColorMatrix in="SourceAlpha" type="matrix" values="0 0 0 0 0 0 0 0 0 0 0 0 0 0 0 0 0 0 127 0" result="hardAlpha"/>
<feOffset dy="4"/>
<feGaussianBlur stdDeviation="2"/>
<feComposite in2="hardAlpha" operator="out"/>
<feColorMatrix type="matrix" values="0 0 0 0 0 0 0 0 0 0 0 0 0 0 0 0 0 0 0.25 0"/>
<feBlend mode="normal" in2="BackgroundImageFix" result="effect1_dropShadow_10_204"/>
<feBlend mode="normal" in="SourceGraphic" in2="effect1_dropShadow_10_204" result="shape"/>
</filter>
<filter id="filter3_d_10_204" x="232.143" y="10.9758" width="167.881" height="167.881" filterUnits="userSpaceOnUse" color-interpolation-filters="sRGB">
<feFlood flood-opacity="0" result="BackgroundImageFix"/>
<feColorMatrix in="SourceAlpha" type="matrix" values="0 0 0 0 0 0 0 0 0 0 0 0 0 0 0 0 0 0 127 0" result="hardAlpha"/>
<feOffset dy="4"/>
<feGaussianBlur stdDeviation="2"/>
<feComposite in2="hardAlpha" operator="out"/>
<feColorMatrix type="matrix" values="0 0 0 0 0 0 0 0 0 0 0 0 0 0 0 0 0 0 0.25 0"/>
<feBlend mode="normal" in2="BackgroundImageFix" result="effect1_dropShadow_10_204"/>
<feBlend mode="normal" in="SourceGraphic" in2="effect1_dropShadow_10_204" result="shape"/>
</filter>
<filter id="filter4_d_10_204" x="409.061" y="6.0611" width="177.71" height="177.71" filterUnits="userSpaceOnUse" color-interpolation-filters="sRGB">
<feFlood flood-opacity="0" result="BackgroundImageFix"/>
<feColorMatrix in="SourceAlpha" type="matrix" values="0 0 0 0 0 0 0 0 0 0 0 0 0 0 0 0 0 0 127 0" result="hardAlpha"/>
<feOffset dy="4"/>
<feGaussianBlur stdDeviation="2"/>
<feComposite in2="hardAlpha" operator="out"/>
<feColorMatrix type="matrix" values="0 0 0 0 0 0 0 0 0 0 0 0 0 0 0 0 0 0 0.25 0"/>
<feBlend mode="normal" in2="BackgroundImageFix" result="effect1_dropShadow_10_204"/>
<feBlend mode="normal" in="SourceGraphic" in2="effect1_dropShadow_10_204" result="shape"/>
</filter>
<filter id="filter5_d_10_204" x="413.976" y="10.9758" width="167.881" height="167.881" filterUnits="userSpaceOnUse" color-interpolation-filters="sRGB">
<feFlood flood-opacity="0" result="BackgroundImageFix"/>
<feColorMatrix in="SourceAlpha" type="matrix" values="0 0 0 0 0 0 0 0 0 0 0 0 0 0 0 0 0 0 127 0" result="hardAlpha"/>
<feOffset dy="4"/>
<feGaussianBlur stdDeviation="2"/>
<feComposite in2="hardAlpha" operator="out"/>
<feColorMatrix type="matrix" values="0 0 0 0 0 0 0 0 0 0 0 0 0 0 0 0 0 0 0.25 0"/>
<feBlend mode="normal" in2="BackgroundImageFix" result="effect1_dropShadow_10_204"/>
<feBlend mode="normal" in="SourceGraphic" in2="effect1_dropShadow_10_204" result="shape"/>
</filter>
<filter id="filter6_d_10_204" x="595.808" y="10.9758" width="167.881" height="167.881" filterUnits="userSpaceOnUse" color-interpolation-filters="sRGB">
<feFlood flood-opacity="0" result="BackgroundImageFix"/>
<feColorMatrix in="SourceAlpha" type="matrix" values="0 0 0 0 0 0 0 0 0 0 0 0 0 0 0 0 0 0 127 0" result="hardAlpha"/>
<feOffset dy="4"/>
<feGaussianBlur stdDeviation="2"/>
<feComposite in2="hardAlpha" operator="out"/>
<feColorMatrix type="matrix" values="0 0 0 0 0 0 0 0 0 0 0 0 0 0 0 0 0 0 0.25 0"/>
<feBlend mode="normal" in2="BackgroundImageFix" result="effect1_dropShadow_10_204"/>
<feBlend mode="normal" in="SourceGraphic" in2="effect1_dropShadow_10_204" result="shape"/>
</filter>
<filter id="filter7_d_10_204" x="595.808" y="10.9758" width="167.881" height="167.881" filterUnits="userSpaceOnUse" color-interpolation-filters="sRGB">
<feFlood flood-opacity="0" result="BackgroundImageFix"/>
<feColorMatrix in="SourceAlpha" type="matrix" values="0 0 0 0 0 0 0 0 0 0 0 0 0 0 0 0 0 0 127 0" result="hardAlpha"/>
<feOffset dy="4"/>
<feGaussianBlur stdDeviation="2"/>
<feComposite in2="hardAlpha" operator="out"/>
<feColorMatrix type="matrix" values="0 0 0 0 0 0 0 0 0 0 0 0 0 0 0 0 0 0 0.25 0"/>
<feBlend mode="normal" in2="BackgroundImageFix" result="effect1_dropShadow_10_204"/>
<feBlend mode="normal" in="SourceGraphic" in2="effect1_dropShadow_10_204" result="shape"/>
</filter>
<filter id="filter8_d_10_204" x="45.396" y="187.894" width="177.71" height="177.71" filterUnits="userSpaceOnUse" color-interpolation-filters="sRGB">
<feFlood flood-opacity="0" result="BackgroundImageFix"/>
<feColorMatrix in="SourceAlpha" type="matrix" values="0 0 0 0 0 0 0 0 0 0 0 0 0 0 0 0 0 0 127 0" result="hardAlpha"/>
<feOffset dy="4"/>
<feGaussianBlur stdDeviation="2"/>
<feComposite in2="hardAlpha" operator="out"/>
<feColorMatrix type="matrix" values="0 0 0 0 0 0 0 0 0 0 0 0 0 0 0 0 0 0 0.25 0"/>
<feBlend mode="normal" in2="BackgroundImageFix" result="effect1_dropShadow_10_204"/>
<feBlend mode="normal" in="SourceGraphic" in2="effect1_dropShadow_10_204" result="shape"/>
</filter>
<filter id="filter9_d_10_204" x="50.3106" y="192.808" width="167.881" height="167.881" filterUnits="userSpaceOnUse" color-interpolation-filters="sRGB">
<feFlood flood-opacity="0" result="BackgroundImageFix"/>
<feColorMatrix in="SourceAlpha" type="matrix" values="0 0 0 0 0 0 0 0 0 0 0 0 0 0 0 0 0 0 127 0" result="hardAlpha"/>
<feOffset dy="4"/>
<feGaussianBlur stdDeviation="2"/>
<feComposite in2="hardAlpha" operator="out"/>
<feColorMatrix type="matrix" values="0 0 0 0 0 0 0 0 0 0 0 0 0 0 0 0 0 0 0.25 0"/>
<feBlend mode="normal" in2="BackgroundImageFix" result="effect1_dropShadow_10_204"/>
<feBlend mode="normal" in="SourceGraphic" in2="effect1_dropShadow_10_204" result="shape"/>
</filter>
<filter id="filter10_d_10_204" x="227.229" y="187.894" width="177.71" height="177.71" filterUnits="userSpaceOnUse" color-interpolation-filters="sRGB">
<feFlood flood-opacity="0" result="BackgroundImageFix"/>
<feColorMatrix in="SourceAlpha" type="matrix" values="0 0 0 0 0 0 0 0 0 0 0 0 0 0 0 0 0 0 127 0" result="hardAlpha"/>
<feOffset dy="4"/>
<feGaussianBlur stdDeviation="2"/>
<feComposite in2="hardAlpha" operator="out"/>
<feColorMatrix type="matrix" values="0 0 0 0 0 0 0 0 0 0 0 0 0 0 0 0 0 0 0.25 0"/>
<feBlend mode="normal" in2="BackgroundImageFix" result="effect1_dropShadow_10_204"/>
<feBlend mode="normal" in="SourceGraphic" in2="effect1_dropShadow_10_204" result="shape"/>
</filter>
<filter id="filter11_d_10_204" x="232.143" y="192.808" width="167.881" height="167.881" filterUnits="userSpaceOnUse" color-interpolation-filters="sRGB">
<feFlood flood-opacity="0" result="BackgroundImageFix"/>
<feColorMatrix in="SourceAlpha" type="matrix" values="0 0 0 0 0 0 0 0 0 0 0 0 0 0 0 0 0 0 127 0" result="hardAlpha"/>
<feOffset dy="4"/>
<feGaussianBlur stdDeviation="2"/>
<feComposite in2="hardAlpha" operator="out"/>
<feColorMatrix type="matrix" values="0 0 0 0 0 0 0 0 0 0 0 0 0 0 0 0 0 0 0.25 0"/>
<feBlend mode="normal" in2="BackgroundImageFix" result="effect1_dropShadow_10_204"/>
<feBlend mode="normal" in="SourceGraphic" in2="effect1_dropShadow_10_204" result="shape"/>
</filter>
<filter id="filter12_d_10_204" x="409.061" y="187.894" width="177.71" height="177.71" filterUnits="userSpaceOnUse" color-interpolation-filters="sRGB">
<feFlood flood-opacity="0" result="BackgroundImageFix"/>
<feColorMatrix in="SourceAlpha" type="matrix" values="0 0 0 0 0 0 0 0 0 0 0 0 0 0 0 0 0 0 127 0" result="hardAlpha"/>
<feOffset dy="4"/>
<feGaussianBlur stdDeviation="2"/>
<feComposite in2="hardAlpha" operator="out"/>
<feColorMatrix type="matrix" values="0 0 0 0 0 0 0 0 0 0 0 0 0 0 0 0 0 0 0.25 0"/>
<feBlend mode="normal" in2="BackgroundImageFix" result="effect1_dropShadow_10_204"/>
<feBlend mode="normal" in="SourceGraphic" in2="effect1_dropShadow_10_204" result="shape"/>
</filter>
<filter id="filter13_d_10_204" x="413.976" y="192.808" width="167.881" height="167.881" filterUnits="userSpaceOnUse" color-interpolation-filters="sRGB">
<feFlood flood-opacity="0" result="BackgroundImageFix"/>
<feColorMatrix in="SourceAlpha" type="matrix" values="0 0 0 0 0 0 0 0 0 0 0 0 0 0 0 0 0 0 127 0" result="hardAlpha"/>
<feOffset dy="4"/>
<feGaussianBlur stdDeviation="2"/>
<feComposite in2="hardAlpha" operator="out"/>
<feColorMatrix type="matrix" values="0 0 0 0 0 0 0 0 0 0 0 0 0 0 0 0 0 0 0.25 0"/>
<feBlend mode="normal" in2="BackgroundImageFix" result="effect1_dropShadow_10_204"/>
<feBlend mode="normal" in="SourceGraphic" in2="effect1_dropShadow_10_204" result="shape"/>
</filter>
<filter id="filter14_d_10_204" x="595.808" y="192.808" width="167.881" height="167.881" filterUnits="userSpaceOnUse" color-interpolation-filters="sRGB">
<feFlood flood-opacity="0" result="BackgroundImageFix"/>
<feColorMatrix in="SourceAlpha" type="matrix" values="0 0 0 0 0 0 0 0 0 0 0 0 0 0 0 0 0 0 127 0" result="hardAlpha"/>
<feOffset dy="4"/>
<feGaussianBlur stdDeviation="2"/>
<feComposite in2="hardAlpha" operator="out"/>
<feColorMatrix type="matrix" values="0 0 0 0 0 0 0 0 0 0 0 0 0 0 0 0 0 0 0.25 0"/>
<feBlend mode="normal" in2="BackgroundImageFix" result="effect1_dropShadow_10_204"/>
<feBlend mode="normal" in="SourceGraphic" in2="effect1_dropShadow_10_204" result="shape"/>
</filter>
<filter id="filter15_d_10_204" x="595.808" y="192.808" width="167.881" height="167.881" filterUnits="userSpaceOnUse" color-interpolation-filters="sRGB">
<feFlood flood-opacity="0" result="BackgroundImageFix"/>
<feColorMatrix in="SourceAlpha" type="matrix" values="0 0 0 0 0 0 0 0 0 0 0 0 0 0 0 0 0 0 127 0" result="hardAlpha"/>
<feOffset dy="4"/>
<feGaussianBlur stdDeviation="2"/>
<feComposite in2="hardAlpha" operator="out"/>
<feColorMatrix type="matrix" values="0 0 0 0 0 0 0 0 0 0 0 0 0 0 0 0 0 0 0.25 0"/>
<feBlend mode="normal" in2="BackgroundImageFix" result="effect1_dropShadow_10_204"/>
<feBlend mode="normal" in="SourceGraphic" in2="effect1_dropShadow_10_204" result="shape"/>
</filter>
<filter id="filter16_d_10_204" x="50.3106" y="374.641" width="167.881" height="167.881" filterUnits="userSpaceOnUse" color-interpolation-filters="sRGB">
<feFlood flood-opacity="0" result="BackgroundImageFix"/>
<feColorMatrix in="SourceAlpha" type="matrix" values="0 0 0 0 0 0 0 0 0 0 0 0 0 0 0 0 0 0 127 0" result="hardAlpha"/>
<feOffset dy="4"/>
<feGaussianBlur stdDeviation="2"/>
<feComposite in2="hardAlpha" operator="out"/>
<feColorMatrix type="matrix" values="0 0 0 0 0 0 0 0 0 0 0 0 0 0 0 0 0 0 0.25 0"/>
<feBlend mode="normal" in2="BackgroundImageFix" result="effect1_dropShadow_10_204"/>
<feBlend mode="normal" in="SourceGraphic" in2="effect1_dropShadow_10_204" result="shape"/>
</filter>
<filter id="filter17_d_10_204" x="50.3106" y="374.641" width="167.881" height="167.881" filterUnits="userSpaceOnUse" color-interpolation-filters="sRGB">
<feFlood flood-opacity="0" result="BackgroundImageFix"/>
<feColorMatrix in="SourceAlpha" type="matrix" values="0 0 0 0 0 0 0 0 0 0 0 0 0 0 0 0 0 0 127 0" result="hardAlpha"/>
<feOffset dy="4"/>
<feGaussianBlur stdDeviation="2"/>
<feComposite in2="hardAlpha" operator="out"/>
<feColorMatrix type="matrix" values="0 0 0 0 0 0 0 0 0 0 0 0 0 0 0 0 0 0 0.25 0"/>
<feBlend mode="normal" in2="BackgroundImageFix" result="effect1_dropShadow_10_204"/>
<feBlend mode="normal" in="SourceGraphic" in2="effect1_dropShadow_10_204" result="shape"/>
</filter>
<filter id="filter18_d_10_204" x="221.167" y="363.665" width="189.833" height="189.833" filterUnits="userSpaceOnUse" color-interpolation-filters="sRGB">
<feFlood flood-opacity="0" result="BackgroundImageFix"/>
<feColorMatrix in="SourceAlpha" type="matrix" values="0 0 0 0 0 0 0 0 0 0 0 0 0 0 0 0 0 0 127 0" result="hardAlpha"/>
<feOffset dy="4"/>
<feGaussianBlur stdDeviation="2"/>
<feComposite in2="hardAlpha" operator="out"/>
<feColorMatrix type="matrix" values="0 0 0 0 0 0 0 0 0 0 0 0 0 0 0 0 0 0 0.25 0"/>
<feBlend mode="normal" in2="BackgroundImageFix" result="effect1_dropShadow_10_204"/>
<feBlend mode="normal" in="SourceGraphic" in2="effect1_dropShadow_10_204" result="shape"/>
</filter>
<filter id="filter19_d_10_204" x="232.143" y="374.641" width="167.881" height="167.881" filterUnits="userSpaceOnUse" color-interpolation-filters="sRGB">
<feFlood flood-opacity="0" result="BackgroundImageFix"/>
<feColorMatrix in="SourceAlpha" type="matrix" values="0 0 0 0 0 0 0 0 0 0 0 0 0 0 0 0 0 0 127 0" result="hardAlpha"/>
<feOffset dy="4"/>
<feGaussianBlur stdDeviation="2"/>
<feComposite in2="hardAlpha" operator="out"/>
<feColorMatrix type="matrix" values="0 0 0 0 0 0 0 0 0 0 0 0 0 0 0 0 0 0 0.25 0"/>
<feBlend mode="normal" in2="BackgroundImageFix" result="effect1_dropShadow_10_204"/>
<feBlend mode="normal" in="SourceGraphic" in2="effect1_dropShadow_10_204" result="shape"/>
</filter>
<filter id="filter20_d_10_204" x="403" y="363.665" width="189.833" height="189.833" filterUnits="userSpaceOnUse" color-interpolation-filters="sRGB">
<feFlood flood-opacity="0" result="BackgroundImageFix"/>
<feColorMatrix in="SourceAlpha" type="matrix" values="0 0 0 0 0 0 0 0 0 0 0 0 0 0 0 0 0 0 127 0" result="hardAlpha"/>
<feOffset dy="4"/>
<feGaussianBlur stdDeviation="2"/>
<feComposite in2="hardAlpha" operator="out"/>
<feColorMatrix type="matrix" values="0 0 0 0 0 0 0 0 0 0 0 0 0 0 0 0 0 0 0.25 0"/>
<feBlend mode="normal" in2="BackgroundImageFix" result="effect1_dropShadow_10_204"/>
<feBlend mode="normal" in="SourceGraphic" in2="effect1_dropShadow_10_204" result="shape"/>
</filter>
<filter id="filter21_d_10_204" x="413.976" y="374.641" width="167.881" height="167.881" filterUnits="userSpaceOnUse" color-interpolation-filters="sRGB">
<feFlood flood-opacity="0" result="BackgroundImageFix"/>
<feColorMatrix in="SourceAlpha" type="matrix" values="0 0 0 0 0 0 0 0 0 0 0 0 0 0 0 0 0 0 127 0" result="hardAlpha"/>
<feOffset dy="4"/>
<feGaussianBlur stdDeviation="2"/>
<feComposite in2="hardAlpha" operator="out"/>
<feColorMatrix type="matrix" values="0 0 0 0 0 0 0 0 0 0 0 0 0 0 0 0 0 0 0.25 0"/>
<feBlend mode="normal" in2="BackgroundImageFix" result="effect1_dropShadow_10_204"/>
<feBlend mode="normal" in="SourceGraphic" in2="effect1_dropShadow_10_204" result="shape"/>
</filter>
<filter id="filter22_d_10_204" x="593.924" y="372.757" width="171.649" height="171.649" filterUnits="userSpaceOnUse" color-interpolation-filters="sRGB">
<feFlood flood-opacity="0" result="BackgroundImageFix"/>
<feColorMatrix in="SourceAlpha" type="matrix" values="0 0 0 0 0 0 0 0 0 0 0 0 0 0 0 0 0 0 127 0" result="hardAlpha"/>
<feOffset dy="4"/>
<feGaussianBlur stdDeviation="2"/>
<feComposite in2="hardAlpha" operator="out"/>
<feColorMatrix type="matrix" values="0 0 0 0 0 0 0 0 0 0 0 0 0 0 0 0 0 0 0.25 0"/>
<feBlend mode="normal" in2="BackgroundImageFix" result="effect1_dropShadow_10_204"/>
<feBlend mode="normal" in="SourceGraphic" in2="effect1_dropShadow_10_204" result="shape"/>
</filter>
<filter id="filter23_d_10_204" x="595.808" y="374.641" width="167.881" height="167.881" filterUnits="userSpaceOnUse" color-interpolation-filters="sRGB">
<feFlood flood-opacity="0" result="BackgroundImageFix"/>
<feColorMatrix in="SourceAlpha" type="matrix" values="0 0 0 0 0 0 0 0 0 0 0 0 0 0 0 0 0 0 127 0" result="hardAlpha"/>
<feOffset dy="4"/>
<feGaussianBlur stdDeviation="2"/>
<feComposite in2="hardAlpha" operator="out"/>
<feColorMatrix type="matrix" values="0 0 0 0 0 0 0 0 0 0 0 0 0 0 0 0 0 0 0.25 0"/>
<feBlend mode="normal" in2="BackgroundImageFix" result="effect1_dropShadow_10_204"/>
<feBlend mode="normal" in="SourceGraphic" in2="effect1_dropShadow_10_204" result="shape"/>
</filter>
<filter id="filter24_d_10_204" x="50.3106" y="556.474" width="167.881" height="167.881" filterUnits="userSpaceOnUse" color-interpolation-filters="sRGB">
<feFlood flood-opacity="0" result="BackgroundImageFix"/>
<feColorMatrix in="SourceAlpha" type="matrix" values="0 0 0 0 0 0 0 0 0 0 0 0 0 0 0 0 0 0 127 0" result="hardAlpha"/>
<feOffset dy="4"/>
<feGaussianBlur stdDeviation="2"/>
<feComposite in2="hardAlpha" operator="out"/>
<feColorMatrix type="matrix" values="0 0 0 0 0 0 0 0 0 0 0 0 0 0 0 0 0 0 0.25 0"/>
<feBlend mode="normal" in2="BackgroundImageFix" result="effect1_dropShadow_10_204"/>
<feBlend mode="normal" in="SourceGraphic" in2="effect1_dropShadow_10_204" result="shape"/>
</filter>
<filter id="filter25_d_10_204" x="50.3106" y="556.474" width="167.881" height="167.881" filterUnits="userSpaceOnUse" color-interpolation-filters="sRGB">
<feFlood flood-opacity="0" result="BackgroundImageFix"/>
<feColorMatrix in="SourceAlpha" type="matrix" values="0 0 0 0 0 0 0 0 0 0 0 0 0 0 0 0 0 0 127 0" result="hardAlpha"/>
<feOffset dy="4"/>
<feGaussianBlur stdDeviation="2"/>
<feComposite in2="hardAlpha" operator="out"/>
<feColorMatrix type="matrix" values="0 0 0 0 0 0 0 0 0 0 0 0 0 0 0 0 0 0 0.25 0"/>
<feBlend mode="normal" in2="BackgroundImageFix" result="effect1_dropShadow_10_204"/>
<feBlend mode="normal" in="SourceGraphic" in2="effect1_dropShadow_10_204" result="shape"/>
</filter>
<filter id="filter26_d_10_204" x="221.167" y="545.498" width="189.833" height="189.833" filterUnits="userSpaceOnUse" color-interpolation-filters="sRGB">
<feFlood flood-opacity="0" result="BackgroundImageFix"/>
<feColorMatrix in="SourceAlpha" type="matrix" values="0 0 0 0 0 0 0 0 0 0 0 0 0 0 0 0 0 0 127 0" result="hardAlpha"/>
<feOffset dy="4"/>
<feGaussianBlur stdDeviation="2"/>
<feComposite in2="hardAlpha" operator="out"/>
<feColorMatrix type="matrix" values="0 0 0 0 0 0 0 0 0 0 0 0 0 0 0 0 0 0 0.25 0"/>
<feBlend mode="normal" in2="BackgroundImageFix" result="effect1_dropShadow_10_204"/>
<feBlend mode="normal" in="SourceGraphic" in2="effect1_dropShadow_10_204" result="shape"/>
</filter>
<filter id="filter27_d_10_204" x="232.143" y="556.474" width="167.881" height="167.881" filterUnits="userSpaceOnUse" color-interpolation-filters="sRGB">
<feFlood flood-opacity="0" result="BackgroundImageFix"/>
<feColorMatrix in="SourceAlpha" type="matrix" values="0 0 0 0 0 0 0 0 0 0 0 0 0 0 0 0 0 0 127 0" result="hardAlpha"/>
<feOffset dy="4"/>
<feGaussianBlur stdDeviation="2"/>
<feComposite in2="hardAlpha" operator="out"/>
<feColorMatrix type="matrix" values="0 0 0 0 0 0 0 0 0 0 0 0 0 0 0 0 0 0 0.25 0"/>
<feBlend mode="normal" in2="BackgroundImageFix" result="effect1_dropShadow_10_204"/>
<feBlend mode="normal" in="SourceGraphic" in2="effect1_dropShadow_10_204" result="shape"/>
</filter>
<filter id="filter28_d_10_204" x="221.167" y="545.498" width="189.833" height="189.833" filterUnits="userSpaceOnUse" color-interpolation-filters="sRGB">
<feFlood flood-opacity="0" result="BackgroundImageFix"/>
<feColorMatrix in="SourceAlpha" type="matrix" values="0 0 0 0 0 0 0 0 0 0 0 0 0 0 0 0 0 0 127 0" result="hardAlpha"/>
<feOffset dy="4"/>
<feGaussianBlur stdDeviation="2"/>
<feComposite in2="hardAlpha" operator="out"/>
<feColorMatrix type="matrix" values="0 0 0 0 0 0 0 0 0 0 0 0 0 0 0 0 0 0 0.25 0"/>
<feBlend mode="normal" in2="BackgroundImageFix" result="effect1_dropShadow_10_204"/>
<feBlend mode="normal" in="SourceGraphic" in2="effect1_dropShadow_10_204" result="shape"/>
</filter>
<filter id="filter29_d_10_204" x="403" y="545.498" width="189.833" height="189.833" filterUnits="userSpaceOnUse" color-interpolation-filters="sRGB">
<feFlood flood-opacity="0" result="BackgroundImageFix"/>
<feColorMatrix in="SourceAlpha" type="matrix" values="0 0 0 0 0 0 0 0 0 0 0 0 0 0 0 0 0 0 127 0" result="hardAlpha"/>
<feOffset dy="4"/>
<feGaussianBlur stdDeviation="2"/>
<feComposite in2="hardAlpha" operator="out"/>
<feColorMatrix type="matrix" values="0 0 0 0 0 0 0 0 0 0 0 0 0 0 0 0 0 0 0.25 0"/>
<feBlend mode="normal" in2="BackgroundImageFix" result="effect1_dropShadow_10_204"/>
<feBlend mode="normal" in="SourceGraphic" in2="effect1_dropShadow_10_204" result="shape"/>
</filter>
<filter id="filter30_d_10_204" x="413.976" y="556.474" width="167.881" height="167.881" filterUnits="userSpaceOnUse" color-interpolation-filters="sRGB">
<feFlood flood-opacity="0" result="BackgroundImageFix"/>
<feColorMatrix in="SourceAlpha" type="matrix" values="0 0 0 0 0 0 0 0 0 0 0 0 0 0 0 0 0 0 127 0" result="hardAlpha"/>
<feOffset dy="4"/>
<feGaussianBlur stdDeviation="2"/>
<feComposite in2="hardAlpha" operator="out"/>
<feColorMatrix type="matrix" values="0 0 0 0 0 0 0 0 0 0 0 0 0 0 0 0 0 0 0.25 0"/>
<feBlend mode="normal" in2="BackgroundImageFix" result="effect1_dropShadow_10_204"/>
<feBlend mode="normal" in="SourceGraphic" in2="effect1_dropShadow_10_204" result="shape"/>
</filter>
<filter id="filter31_d_10_204" x="584.833" y="545.498" width="189.833" height="189.833" filterUnits="userSpaceOnUse" color-interpolation-filters="sRGB">
<feFlood flood-opacity="0" result="BackgroundImageFix"/>
<feColorMatrix in="SourceAlpha" type="matrix" values="0 0 0 0 0 0 0 0 0 0 0 0 0 0 0 0 0 0 127 0" result="hardAlpha"/>
<feOffset dy="4"/>
<feGaussianBlur stdDeviation="2"/>
<feComposite in2="hardAlpha" operator="out"/>
<feColorMatrix type="matrix" values="0 0 0 0 0 0 0 0 0 0 0 0 0 0 0 0 0 0 0.25 0"/>
<feBlend mode="normal" in2="BackgroundImageFix" result="effect1_dropShadow_10_204"/>
<feBlend mode="normal" in="SourceGraphic" in2="effect1_dropShadow_10_204" result="shape"/>
</filter>
<filter id="filter32_d_10_204" x="595.808" y="556.474" width="167.881" height="167.881" filterUnits="userSpaceOnUse" color-interpolation-filters="sRGB">
<feFlood flood-opacity="0" result="BackgroundImageFix"/>
<feColorMatrix in="SourceAlpha" type="matrix" values="0 0 0 0 0 0 0 0 0 0 0 0 0 0 0 0 0 0 127 0" result="hardAlpha"/>
<feOffset dy="4"/>
<feGaussianBlur stdDeviation="2"/>
<feComposite in2="hardAlpha" operator="out"/>
<feColorMatrix type="matrix" values="0 0 0 0 0 0 0 0 0 0 0 0 0 0 0 0 0 0 0.25 0"/>
<feBlend mode="normal" in2="BackgroundImageFix" result="effect1_dropShadow_10_204"/>
<feBlend mode="normal" in="SourceGraphic" in2="effect1_dropShadow_10_204" result="shape"/>
</filter>
<linearGradient id="paint0_linear_10_204" x1="523.695" y1="228.098" x2="470.584" y2="320.089" gradientUnits="userSpaceOnUse">
<stop stop-color="#EC790F"/>
<stop offset="1" stop-color="#F51032"/>
</linearGradient>
<clipPath id="clip0_10_204">
<rect x="111.514" y="6.0611" width="124.237" height="124.237" rx="30" transform="rotate(30 111.514 6.0611)" fill="white"/>
</clipPath>
<clipPath id="clip1_10_204">
<rect x="291.723" width="133.111" height="133.111" rx="30" transform="rotate(30 291.723 0)" fill="white"/>
</clipPath>
<clipPath id="clip2_10_204">
<rect x="475.179" y="6.0611" width="124.237" height="124.237" rx="30" transform="rotate(30 475.179 6.0611)" fill="white"/>
</clipPath>
<clipPath id="clip3_10_204">
<rect x="658.636" y="12.1222" width="115.363" height="115.363" rx="30" transform="rotate(30 658.636 12.1222)" fill="white"/>
</clipPath>
<clipPath id="clip4_10_204">
<rect x="293.347" y="187.894" width="124.237" height="124.237" rx="30" transform="rotate(30 293.347 187.894)" fill="white"/>
</clipPath>
<clipPath id="clip5_10_204">
<rect x="475.179" y="187.894" width="124.237" height="124.237" rx="30" transform="rotate(30 475.179 187.894)" fill="white"/>
</clipPath>
<clipPath id="clip6_10_204">
<rect x="658.636" y="193.955" width="115.363" height="115.363" rx="30" transform="rotate(30 658.636 193.955)" fill="white"/>
</clipPath>
<clipPath id="clip7_10_204">
<rect x="113.544" y="377.303" width="113.144" height="113.144" rx="30" transform="rotate(30 113.544 377.303)" fill="white"/>
</clipPath>
<clipPath id="clip8_10_204">
<rect x="291.723" y="363.665" width="133.111" height="133.111" rx="30" transform="rotate(30 291.723 363.665)" fill="white"/>
</clipPath>
<clipPath id="clip9_10_204">
<rect x="473.555" y="363.665" width="133.111" height="133.111" rx="30" transform="rotate(30 473.555 363.665)" fill="white"/>
</clipPath>
<clipPath id="clip10_10_204">
<rect x="657.824" y="372.757" width="119.8" height="119.8" rx="30" transform="rotate(30 657.824 372.757)" fill="white"/>
</clipPath>
<clipPath id="clip11_10_204">
<rect x="113.544" y="559.135" width="113.144" height="113.144" rx="30" transform="rotate(30 113.544 559.135)" fill="white"/>
</clipPath>
<clipPath id="clip12_10_204">
<rect x="291.723" y="545.498" width="133.111" height="133.111" rx="30" transform="rotate(30 291.723 545.498)" fill="white"/>
</clipPath>
<clipPath id="clip13_10_204">
<rect x="473.555" y="545.498" width="133.111" height="133.111" rx="30" transform="rotate(30 473.555 545.498)" fill="white"/>
</clipPath>
<clipPath id="clip14_10_204">
<rect x="655.388" y="545.498" width="133.111" height="133.111" rx="30" transform="rotate(30 655.388 545.498)" fill="white"/>
</clipPath>
</defs>
</svg>
